<svg viewBox="0 0 30 35" fill="none" xmlns="http://www.w3.org/2000/svg">
  <path
    d="M14.2393 0.0195732C9.93482 0.237206 5.97958 2.24113 3.28164 5.56593C0.0816483 9.50915 -0.852592 14.8099 0.808522 19.5999C1.04426 20.2851 1.2931 20.8669 1.61179 21.4896C2.17059 22.5799 2.8036 23.5108 3.66581 24.5085C3.95176 24.8403 13.8158 34.5841 13.9752 34.6919C14.2939 34.9095 14.5951 34.9978 15.0033 35C15.3744 35 15.6319 34.931 15.9484 34.75C16.0423 34.694 17.2188 33.5477 20.9252 29.8932C23.5948 27.2622 25.8933 24.989 26.0308 24.8424C29.0649 21.6146 30.4794 17.1478 29.8551 12.7585C29.4513 9.90347 28.2442 7.28543 26.3233 5.09188C26.0417 4.77082 25.3476 4.07699 25.0005 3.77102C22.0472 1.16375 18.1858 -0.18082 14.2393 0.0195732Z"
  />
  <path
    d="M14.2393 0.0195732C9.93482 0.237206 5.97958 2.24113 3.28164 5.56593C0.0816483 9.50915 -0.852592 14.8099 0.808522 19.5999C1.04426 20.2851 1.2931 20.8669 1.61179 21.4896C2.17059 22.5799 2.8036 23.5108 3.66581 24.5085C3.95176 24.8403 13.8158 34.5841 13.9752 34.6919C14.2939 34.9095 14.5951 34.9978 15.0033 35C15.3744 35 15.6319 34.931 15.9484 34.75C16.0423 34.694 17.2188 33.5477 20.9252 29.8932C23.5948 27.2622 25.8933 24.989 26.0308 24.8424C29.0649 21.6146 30.4794 17.1478 29.8551 12.7585C29.4513 9.90347 28.2442 7.28543 26.3233 5.09188C26.0417 4.77082 25.3476 4.07699 25.0005 3.77102C22.0472 1.16375 18.1858 -0.18082 14.2393 0.0195732ZM15.68 3.52968C17.9632 3.67621 20.0739 4.44115 21.8791 5.78141C22.9269 6.55928 23.8698 7.55047 24.5793 8.6257C25.5812 10.1383 26.2054 11.8902 26.3866 13.6894C26.4543 14.3466 26.4477 15.3615 26.3757 16.0252C26.1836 17.764 25.5615 19.4879 24.6033 20.9488L24.4614 21.1621L20.29 17.0465C17.9937 14.7819 16.0707 12.8986 16.0117 12.862C15.8655 12.765 15.6167 12.653 15.4508 12.6077C15.346 12.5797 15.2259 12.5689 14.9924 12.5689C14.6257 12.5689 14.4838 12.6012 14.152 12.7672L13.9555 12.8663L9.75147 17.012L5.54739 21.16L5.46881 21.0522C5.20251 20.6838 4.70046 19.7701 4.46472 19.2164C3.16813 16.1846 3.27509 12.6982 4.75503 9.77634C5.33566 8.63001 5.98613 7.74224 6.91382 6.82431C8.19076 5.56593 9.62705 4.68033 11.3253 4.10931C12.2988 3.77963 13.2614 3.59863 14.4249 3.52106C14.6737 3.50598 15.3656 3.51029 15.68 3.52968ZM18.5394 20.2937L22.0756 23.7845L21.6827 24.1745C20.2748 25.5729 15.0055 30.7659 14.9946 30.7659C14.9858 30.7659 13.3902 29.1951 11.4453 27.2752L7.90918 23.7845L11.4453 20.2937C13.3902 18.3738 14.9858 16.803 14.9924 16.803C14.9989 16.803 16.5946 18.3738 18.5394 20.2937Z"
    fill="#2A2A31"
  />
</svg>
