<svg
  width="194"
  height="42"
  viewBox="0 0 194 42"
  fill="none"
  xmlns="http://www.w3.org/2000/svg"
>
  <path
    d="M17.5374 1.02253C12.5382 1.27209 7.94462 3.57006 4.81126 7.38272C1.09483 11.9045 0.00981029 17.983 1.93901 23.4759C2.2128 24.2617 2.5018 24.9289 2.87192 25.643C3.5209 26.8933 4.25607 27.9607 5.25743 29.1047C5.58953 29.4853 17.0456 40.6589 17.2306 40.7824C17.6007 41.032 17.9506 41.1333 18.4246 41.1357C18.8556 41.1357 19.1547 41.0567 19.5223 40.8491C19.6313 40.7849 20.9978 39.4703 25.3023 35.2796C28.4027 32.2626 31.0722 29.6558 31.2319 29.4877C34.7556 25.7863 36.3984 20.664 35.6733 15.6307C35.2044 12.3567 33.8025 9.35453 31.5716 6.83912C31.2446 6.47095 30.4384 5.6753 30.0353 5.32443C26.6054 2.3346 22.1208 0.792729 17.5374 1.02253ZM19.2105 5.04769C21.8622 5.21571 24.3136 6.09289 26.4102 7.62982C27.627 8.52183 28.7221 9.65846 29.546 10.8915C30.7097 12.6261 31.4347 14.6349 31.6451 16.6982C31.7237 17.4518 31.7161 18.6156 31.6324 19.3767C31.4093 21.3707 30.6868 23.3475 29.5739 25.0228L29.4092 25.2674L24.5646 20.5479C21.8977 17.9509 19.6643 15.7913 19.5959 15.7493C19.426 15.6381 19.137 15.5096 18.9443 15.4577C18.8227 15.4256 18.6832 15.4133 18.412 15.4133C17.9861 15.4133 17.8213 15.4503 17.436 15.6406L17.2078 15.7543L12.3252 20.5083L7.44267 25.2649L7.35141 25.1414C7.04213 24.7188 6.45906 23.6711 6.18527 23.0361C4.67943 19.5595 4.80365 15.5615 6.52244 12.2109C7.19677 10.8964 7.95222 9.87837 9.02963 8.82575C10.5127 7.38272 12.1807 6.36717 14.153 5.71237C15.2837 5.33431 16.4017 5.12676 17.7528 5.0378C18.0418 5.02051 18.8455 5.02545 19.2105 5.04769ZM22.5315 24.2716L26.6383 28.2745L26.182 28.7217C24.5469 30.3254 18.4272 36.2803 18.4145 36.2803C18.4044 36.2803 16.5512 34.479 14.2925 32.2774L10.1856 28.2745L14.2925 24.2716C16.5512 22.07 18.4044 20.2687 18.412 20.2687C18.4196 20.2687 20.2727 22.07 22.5315 24.2716Z"
    fill="#2A2A31"
  />
  <path
    d="M58.086 9.95506C58.0505 9.96 57.944 9.97729 57.8452 9.99212C57.006 10.1256 56.2633 10.7285 56.0199 11.4821C55.8399 12.0306 55.8931 12.6583 56.1619 13.1475C56.608 13.9654 57.4801 14.3978 58.5803 14.3533C59.351 14.3212 59.8707 14.1161 60.3295 13.6615C60.7833 13.2118 61.0115 12.5965 60.9658 11.9417C60.9456 11.6254 60.8949 11.4277 60.7605 11.1584C60.5552 10.7458 60.0634 10.3208 59.5842 10.1404C59.2192 10.0045 59.0012 9.96247 58.555 9.95258C58.3319 9.94764 58.1215 9.94764 58.086 9.95506Z"
    fill="#2A2A31"
  />
  <path
    d="M47.5223 18.5816C47.5299 26.6838 47.5223 26.1847 47.6541 26.7925C47.9989 28.3962 49.1118 29.5254 50.7621 29.9529C51.3883 30.1159 52.2528 30.1975 52.8789 30.153C53.3986 30.1184 54.5648 29.9059 54.6459 29.8318C54.6687 29.812 54.4989 26.8024 54.4735 26.7728C54.471 26.7703 54.4076 26.795 54.3315 26.8271C54.0578 26.9507 53.7738 27.0001 53.3454 27.0001C53.0133 27.0001 52.922 26.9927 52.7547 26.9457C52.1615 26.7802 51.837 26.4565 51.657 25.8536C51.6114 25.6979 51.6089 25.4459 51.5962 18.3913L51.5835 11.0897L49.5478 11.0823L47.5147 11.0774L47.5223 18.5816Z"
    fill="#2A2A31"
  />
  <path
    d="M79.9384 20.5151V29.9541H81.9665H83.9945V26.4997C83.9945 22.9613 84.0022 22.6179 84.096 22.1039C84.3495 20.7079 85.2494 19.8183 86.6691 19.5613C86.9783 19.5045 87.7084 19.4971 88 19.549C88.583 19.6503 89.0571 19.8875 89.4222 20.2581C89.63 20.4731 89.7264 20.609 89.8633 20.8932C90.0686 21.3157 90.1675 21.7605 90.2055 22.4252C90.2182 22.6451 90.2283 24.4291 90.2308 26.3885V29.9541H92.2589H94.287V25.8326C94.287 23.1911 94.2768 21.5924 94.2616 21.3775C94.1323 19.7738 93.6557 18.6001 92.7609 17.6859C92.3274 17.2436 91.9598 16.9841 91.359 16.695C90.1725 16.1292 88.7782 15.9414 87.3028 16.1564C86.6741 16.2453 86.0733 16.4257 85.4953 16.6975C84.9629 16.9496 84.6055 17.1818 84.1162 17.6019L83.9945 17.7032V14.3897V11.0761H81.9665H79.9384V20.5151Z"
    fill="#2A2A31"
  />
  <path
    d="M107.183 11.0942C107.173 11.1016 107.165 15.3492 107.165 20.5332V29.9549H109.117H111.069V29.1765V28.4006L111.302 28.6354C111.713 29.0505 112.091 29.3174 112.628 29.5719C113.356 29.9203 114.106 30.1007 115.044 30.1525C117.153 30.2711 119.037 29.604 120.426 28.2524C121.481 27.222 122.155 25.8951 122.376 24.42C122.54 23.313 122.487 22.0948 122.234 21.0966C121.886 19.7326 121.101 18.4848 120.043 17.6199C119.496 17.1727 118.614 16.6835 117.952 16.4635C116.144 15.8606 114.048 15.9595 112.59 16.7181C112.159 16.9404 111.807 17.19 111.419 17.5458L111.247 17.704V14.3904V11.0769H109.224C108.111 11.0769 107.191 11.0843 107.183 11.0942ZM115.346 19.3694C116.484 19.5325 117.427 20.2218 117.949 21.2671C118.208 21.7884 118.317 22.2678 118.337 22.9745C118.352 23.5008 118.314 23.8714 118.205 24.2791C117.845 25.6332 116.793 26.6191 115.455 26.8588C115.087 26.923 114.41 26.9181 114.04 26.8464C113.107 26.6636 112.352 26.1793 111.842 25.4355C111.429 24.8301 111.234 24.1704 111.204 23.2932C111.16 22.0553 111.487 21.099 112.205 20.3627C112.737 19.8166 113.389 19.488 114.177 19.3694C114.486 19.3224 115.024 19.3224 115.346 19.3694Z"
    fill="#2A2A31"
  />
  <path
    d="M124.158 18.5696C124.165 26.7361 124.155 26.1702 124.302 26.8275C124.7 28.6115 126.014 29.763 128.006 30.0793C128.45 30.1485 129.114 30.1831 129.517 30.1534C130.11 30.1114 131.261 29.894 131.292 29.8174C131.304 29.7852 131.167 27.3143 131.132 26.9387L131.117 26.7732L130.965 26.8349C130.648 26.9585 130.404 27.0005 129.981 27.0005C129.662 26.998 129.552 26.9881 129.393 26.9461C129.063 26.8596 128.779 26.6891 128.607 26.4791C128.495 26.3432 128.364 26.0739 128.3 25.8564L128.244 25.6686L128.237 18.372L128.232 11.0778H126.191H124.15L124.158 18.5696Z"
    fill="#2A2A31"
  />
  <path
    d="M165.066 20.5151V29.9541H167.107H169.148V28.2146V26.475L170.121 25.5459C170.656 25.0345 171.1 24.6169 171.105 24.6169C171.113 24.6169 172.109 25.8178 173.321 27.2855L175.524 29.9541H177.993C180.343 29.9541 180.459 29.9516 180.424 29.9096C180.383 29.8651 174.986 23.1763 174.444 22.4993C174.264 22.2744 174.117 22.0817 174.117 22.0693C174.117 22.0595 175.42 20.7573 177.014 19.1783C178.606 17.6019 179.914 16.2997 179.917 16.2873C179.922 16.275 178.956 16.2651 177.511 16.2651H175.098L174.892 16.4554C174.778 16.5616 174.145 17.1472 173.483 17.7576C172.322 18.8299 172.109 19.0251 171.531 19.5663C171.237 19.8406 170.076 20.9105 169.518 21.422C169.323 21.6023 169.161 21.7456 169.156 21.7407C169.15 21.7382 169.148 19.3834 169.145 16.5097C169.143 13.636 169.138 11.2392 169.13 11.1799L169.118 11.0761H167.092H165.066V20.5151Z"
    fill="#2A2A31"
  />
  <path
    d="M96.6015 19.5947C96.6091 25.4805 96.6117 25.9598 96.6522 26.2242C96.7612 26.9087 96.8981 27.3633 97.1516 27.8674C97.6003 28.7594 98.3025 29.3648 99.347 29.7651C100.653 30.2667 102.665 30.2988 104.032 29.8417C104.336 29.7379 104.732 29.5551 104.965 29.4068L105.132 29.3005L104.605 27.9193C104.313 27.1607 104.07 26.5356 104.065 26.5306C104.06 26.5232 103.971 26.5702 103.867 26.6319C103.647 26.7629 103.37 26.8716 103.063 26.9457C102.764 27.0174 102.115 27.0248 101.867 26.9581C101.641 26.8988 101.4 26.7851 101.241 26.6641C100.985 26.4713 100.762 26.0513 100.701 25.6436C100.686 25.5348 100.675 24.3784 100.675 22.5475V19.6268H102.412H104.148V18.1072V16.5876H102.412H100.675V14.9197V13.2518H98.6346H96.5914L96.6015 19.5947Z"
    fill="#2A2A31"
  />
  <path
    d="M68.4038 16.0831C66.0335 16.2486 64.1575 17.2766 62.9381 19.0754C62.4463 19.7994 62.137 20.6247 61.9875 21.6032C61.9368 21.9269 61.9292 22.0875 61.9266 22.6533C61.9266 23.066 61.9393 23.4193 61.9596 23.5799C62.1573 25.107 62.7429 26.2955 63.8127 27.3382C64.4769 27.9856 65.2349 28.4699 66.0968 28.801C67.7497 29.436 69.8513 29.4682 71.4053 28.8825C72.1025 28.6182 72.6374 28.292 73.1393 27.82L73.3725 27.6001V28.0449C73.3725 28.7689 73.3092 29.2433 73.1418 29.7375C72.759 30.8815 71.9351 31.561 70.6346 31.8032C70.1606 31.8921 69.8716 31.9169 69.2657 31.9169C68.4722 31.9169 67.9069 31.8477 67.1236 31.6574C66.0335 31.3905 65.0068 30.9384 64.3882 30.4516L64.2893 30.375L64.1575 30.6023C63.3843 31.9539 62.6719 33.2215 62.677 33.2265C62.7683 33.2981 63.1257 33.5403 63.3209 33.6589C64.444 34.3433 66.1222 34.8301 68.0869 35.0377C68.6776 35.0994 70.4344 35.0994 70.9769 35.0377C73.0759 34.793 74.5513 34.1679 75.6541 33.0535C76.0623 32.6408 76.3259 32.2776 76.6022 31.7414C77.1042 30.7679 77.3577 29.6881 77.4287 28.2376C77.4565 27.6619 77.4642 16.7651 77.4388 16.4537L77.4211 16.2659L75.5045 16.2709L73.588 16.2783L73.5753 17.1332L73.5627 17.9857L73.37 17.7757C72.5791 16.8985 71.3546 16.3178 69.902 16.13C69.6181 16.093 68.6877 16.0633 68.4038 16.0831ZM70.5408 19.3892C70.9236 19.4584 71.1924 19.5473 71.5599 19.7228C71.9808 19.9229 72.2419 20.1058 72.536 20.4072C72.9593 20.8372 73.2154 21.319 73.3523 21.9318C73.4283 22.2728 73.4359 23.061 73.3649 23.3822C73.2128 24.084 72.9111 24.6276 72.4067 25.0995C71.7704 25.695 70.9845 25.994 69.94 26.041C68.9615 26.0854 68.0311 25.8334 67.3695 25.3491C66.6901 24.85 66.2794 24.2273 66.1045 23.4317C66.0385 23.1277 66.0385 22.2234 66.107 21.9244C66.2388 21.3338 66.4898 20.8644 66.903 20.4369C67.4455 19.8735 68.2441 19.4856 69.1111 19.367C69.4305 19.32 70.2341 19.3348 70.5408 19.3892Z"
    fill="#2A2A31"
  />
  <path
    d="M139.183 16.0834C137.822 16.1773 136.719 16.4713 135.685 17.0199C133.981 17.9218 132.739 19.4241 132.265 21.1612C131.973 22.2262 131.933 23.5481 132.161 24.6328C132.445 25.9795 133.084 27.1112 134.108 28.0823C135.145 29.0632 136.461 29.723 137.941 30.0047C139.318 30.2641 140.915 30.2048 142.205 29.8416C144.175 29.2906 145.828 27.9933 146.685 26.3279C147.136 25.4507 147.361 24.6057 147.422 23.5407C147.493 22.3497 147.28 21.1488 146.824 20.1629C146.464 19.3821 146.02 18.7743 145.336 18.1293C144.793 17.6179 144.261 17.2596 143.48 16.884C142.628 16.4738 141.815 16.244 140.818 16.1303C140.502 16.0933 139.47 16.0636 139.183 16.0834ZM140.522 19.4019C141.224 19.5477 141.741 19.8195 142.238 20.3062C142.925 20.9759 143.265 21.8012 143.308 22.9131C143.356 24.1856 142.996 25.2012 142.238 25.94C141.749 26.4193 141.13 26.7331 140.425 26.8592C140.096 26.916 139.389 26.916 139.059 26.8567C138.304 26.7208 137.713 26.4169 137.183 25.8955C136.663 25.3815 136.349 24.7712 136.202 23.9879C136.144 23.6766 136.134 22.6141 136.187 22.32C136.344 21.4527 136.661 20.84 137.236 20.2889C137.753 19.7923 138.461 19.4562 139.198 19.3574C139.487 19.3179 140.248 19.3426 140.522 19.4019Z"
    fill="#2A2A31"
  />
  <path
    d="M156.396 16.0821C154.99 16.176 153.877 16.475 152.784 17.0482C151.463 17.745 150.444 18.7606 149.818 20.0084C149.319 20.9993 149.09 22.1087 149.128 23.3565C149.151 24.1472 149.255 24.7403 149.488 25.4198C149.833 26.4304 150.35 27.2483 151.124 28.0019C152.176 29.0298 153.519 29.7044 155.104 30.0009C156.237 30.2159 157.644 30.2159 158.741 30.0009C159.335 29.8872 160.067 29.6475 160.541 29.4177C160.962 29.2102 161.462 28.8964 161.746 28.6592C161.991 28.4516 162.41 28.0192 162.582 27.7919C162.645 27.7103 162.701 27.6387 162.711 27.6313C162.772 27.5794 163.259 26.7244 163.236 26.7046C163.201 26.6775 160.09 25.0343 160.085 25.0417C160.082 25.0466 160.017 25.148 159.938 25.2715C159.385 26.1437 158.678 26.6305 157.654 26.8455C157.443 26.89 157.314 26.8999 156.929 26.8999C156.244 26.8999 155.801 26.8084 155.266 26.5589C154.858 26.3686 154.622 26.203 154.292 25.8794C153.755 25.3506 153.486 24.849 153.324 24.0682C153.271 23.8161 153.266 23.7222 153.266 23.1094C153.268 22.467 153.271 22.4126 153.337 22.1186C153.496 21.3822 153.783 20.8485 154.28 20.3568C154.959 19.6847 155.867 19.3289 156.901 19.3289C157.646 19.3289 158.298 19.5167 158.914 19.9145C159.19 20.0924 159.649 20.552 159.859 20.8634C159.956 21.0067 160.047 21.1426 160.06 21.1673C160.082 21.2019 160.235 21.1302 161.327 20.557C162.367 20.0133 163.137 19.6056 163.221 19.5587C163.269 19.5315 162.863 18.8397 162.597 18.4937C161.573 17.1718 159.943 16.3391 157.943 16.1167C157.692 16.0895 156.64 16.0648 156.396 16.0821Z"
    fill="#2A2A31"
  />
  <path
    d="M186.817 16.0833C185.816 16.1402 184.888 16.3156 184.13 16.5923C182.381 17.2274 181.334 18.2751 181.035 19.6909C180.934 20.1703 180.941 20.9758 181.053 21.4972C181.255 22.4559 181.91 23.2367 182.921 23.7334C183.824 24.1732 184.455 24.3264 186.855 24.6797C188.093 24.8626 188.42 24.9392 188.846 25.1443C189.084 25.2579 189.279 25.4161 189.36 25.5693C189.408 25.6533 189.416 25.7101 189.416 25.9275C189.416 26.1722 189.411 26.1994 189.332 26.3525C189.132 26.7504 188.633 27.0098 187.857 27.1161C187.537 27.1605 186.242 27.163 185.879 27.1185C184.952 27.0073 184.168 26.822 183.395 26.528C183.093 26.4143 182.343 26.0634 182.107 25.9275L181.973 25.8509L181.831 26.1425C181.435 26.9604 180.632 28.6555 180.632 28.6752C180.632 28.7098 180.951 28.9001 181.278 29.0607C182.437 29.6241 183.829 29.9749 185.474 30.1183C186.037 30.1652 187.228 30.1726 187.743 30.1306C189.114 30.0169 190.212 29.7204 191.19 29.1966C191.353 29.1076 191.439 29.0533 191.837 28.7716C192.06 28.6135 192.417 28.2552 192.605 28.0007C192.818 27.7116 193.082 27.1976 193.168 26.9036C193.287 26.5008 193.317 26.271 193.317 25.7916C193.317 24.7934 193.084 24.1213 192.516 23.4912C192.248 23.1873 191.994 22.9945 191.523 22.7302C190.739 22.2903 189.816 22.0235 188.379 21.8258C186.772 21.6034 185.933 21.4181 185.428 21.1759C185.154 21.045 185.038 20.9437 184.942 20.7559C184.744 20.3655 184.855 19.9083 185.218 19.5995C185.375 19.466 185.793 19.2708 186.057 19.2091C186.496 19.1053 186.627 19.0954 187.464 19.0954C188.176 19.0979 188.321 19.1053 188.643 19.1522C189.707 19.3128 190.539 19.5698 191.256 19.9553L191.502 20.0887L192.166 18.7025C192.532 17.939 192.836 17.304 192.843 17.2891C192.856 17.257 192.516 17.0717 192.192 16.9309C191.272 16.5355 190.083 16.2612 188.719 16.1303C188.339 16.0932 187.152 16.0636 186.817 16.0833Z"
    fill="#2A2A31"
  />
  <path
    d="M56.4128 23.1096V29.9541H58.4409H60.469V23.1096V16.2651H58.4409H56.4128V23.1096Z"
    fill="#2A2A31"
  />
</svg>
