<?xml version="1.0" standalone="no"?>
<!DOCTYPE svg PUBLIC "-//W3C//DTD SVG 20010904//EN"
 "http://www.w3.org/TR/2001/REC-SVG-20010904/DTD/svg10.dtd">
<svg version="1.0" xmlns="http://www.w3.org/2000/svg"
 width="1120.000000pt" height="1120.000000pt" viewBox="0 0 1120.000000 1120.000000"
 preserveAspectRatio="xMidYMid meet">
<metadata>
Created by potrace 1.14, written by Peter Selinger 2001-2017
</metadata>
<g transform="translate(0.000000,1120.000000) scale(0.100000,-0.100000)"
fill="#000000" stroke="none">
<path d="M5329 11196 c-2 -2 -49 -6 -104 -10 -55 -4 -113 -8 -130 -11 -16 -2
-55 -7 -85 -10 -30 -4 -64 -9 -75 -11 -11 -2 -45 -6 -75 -10 -65 -7 -95 -12
-95 -14 0 -2 -23 -7 -70 -14 -57 -9 -83 -14 -106 -21 -11 -4 -32 -8 -47 -10
-15 -2 -72 -16 -127 -31 -55 -14 -107 -28 -115 -29 -8 -1 -28 -7 -43 -14 -16
-6 -34 -11 -42 -11 -8 0 -26 -5 -42 -12 -15 -6 -34 -10 -40 -9 -7 1 -13 -4
-13 -10 0 -7 -3 -10 -6 -6 -5 5 -58 -10 -104 -30 -8 -3 -21 -7 -27 -9 -7 -1
-50 -17 -95 -34 -46 -18 -87 -33 -93 -34 -5 -1 -30 -12 -55 -23 -25 -11 -103
-47 -175 -79 -71 -32 -152 -71 -178 -86 -26 -16 -54 -28 -62 -28 -7 0 -15 -4
-17 -8 -1 -5 -39 -28 -83 -52 -44 -23 -87 -49 -96 -56 -8 -8 -19 -14 -24 -14
-4 0 -34 -18 -67 -40 -33 -22 -64 -40 -69 -40 -5 0 -9 -4 -9 -10 0 -5 -4 -10
-10 -10 -9 0 -137 -87 -226 -154 -23 -17 -53 -39 -65 -48 -44 -32 -238 -194
-314 -262 -121 -110 -338 -334 -430 -447 -85 -103 -150 -186 -200 -254 -33
-44 -65 -86 -72 -93 -7 -8 -11 -17 -8 -22 3 -5 2 -10 -3 -12 -32 -14 -238
-358 -347 -581 -77 -158 -127 -265 -129 -277 -1 -4 -56 -149 -82 -215 -4 -11
-8 -23 -8 -27 -1 -3 -4 -10 -8 -14 -5 -4 -8 -18 -8 -30 0 -13 -5 -26 -10 -29
-6 -4 -8 -10 -5 -15 3 -5 1 -11 -5 -15 -6 -4 -8 -10 -5 -15 3 -5 1 -11 -5 -15
-6 -4 -8 -10 -5 -15 3 -5 1 -11 -5 -15 -6 -4 -8 -11 -5 -16 4 -5 2 -9 -2 -9
-5 0 -9 -8 -9 -17 -1 -10 -15 -67 -32 -128 -17 -60 -33 -121 -36 -135 -2 -14
-7 -32 -10 -40 -3 -8 -7 -28 -10 -45 -5 -28 -9 -53 -22 -115 -5 -24 -9 -47
-18 -100 -3 -14 -5 -25 -6 -25 -1 0 -3 -16 -5 -35 -2 -19 -8 -73 -15 -119 -31
-229 -35 -311 -34 -651 1 -214 6 -336 19 -445 10 -82 18 -161 20 -175 1 -14 5
-38 8 -55 4 -16 9 -50 13 -75 3 -24 7 -47 9 -50 2 -3 6 -24 9 -46 7 -47 10
-62 26 -129 6 -27 13 -57 15 -65 2 -8 10 -42 19 -75 9 -33 18 -67 21 -76 12
-52 28 -106 36 -122 5 -10 7 -22 4 -27 -4 -6 -1 -10 4 -10 6 0 10 -3 9 -7 -2
-13 14 -67 25 -81 5 -6 7 -12 4 -12 -13 0 120 -341 191 -490 25 -52 44 -97 43
-99 -2 -2 1 -7 6 -10 4 -3 21 -33 38 -66 16 -33 51 -98 77 -144 26 -46 48 -88
48 -92 0 -5 4 -9 9 -9 5 0 11 -8 15 -17 8 -25 41 -81 60 -102 9 -10 16 -23 16
-29 0 -7 4 -12 8 -12 5 0 14 -10 21 -22 11 -22 18 -34 72 -114 39 -57 135
-186 157 -209 10 -11 35 -41 55 -66 64 -81 81 -101 133 -156 29 -29 51 -53 50
-53 -5 0 1018 -1014 1767 -1753 241 -238 580 -572 753 -742 173 -171 314 -310
314 -309 0 1 76 -73 169 -165 214 -211 225 -220 285 -249 112 -54 108 -53 246
-57 184 -6 280 29 404 146 451 427 3155 3099 3253 3215 132 156 158 189 249
311 46 62 84 117 84 122 0 5 3 11 8 13 9 4 98 136 126 188 10 19 21 37 25 40
4 3 12 16 19 30 6 14 28 52 47 85 20 33 45 80 57 105 12 25 29 56 39 70 9 14
17 28 18 32 1 4 24 55 51 113 27 58 53 117 56 130 3 14 11 25 17 25 6 0 7 3 4
6 -3 4 -1 16 5 28 7 11 13 26 14 31 1 6 10 28 19 50 36 82 103 283 98 289 -4
3 -1 6 5 6 7 0 11 3 11 8 -1 4 0 9 1 12 1 3 3 12 5 20 2 8 20 74 40 147 20 72
38 141 40 153 2 12 6 29 9 38 3 9 7 29 10 45 3 15 7 35 10 45 3 9 7 33 10 52
3 19 8 45 10 56 5 23 12 69 22 132 3 20 8 48 10 62 3 14 6 32 6 40 0 8 4 44 9
80 31 242 34 884 4 1025 -3 11 -7 47 -11 80 -10 107 -16 143 -29 210 -4 17 -8
41 -9 55 -2 14 -6 32 -9 40 -3 8 -9 38 -13 65 -9 61 -5 42 -48 211 -19 78 -40
153 -45 168 -6 14 -8 26 -5 26 4 0 2 6 -4 13 -6 7 -13 24 -15 37 -3 14 -12 45
-21 70 -9 25 -18 52 -20 60 -5 17 -51 144 -65 175 -5 11 -21 52 -37 90 -44
112 -170 382 -184 395 -3 3 -18 30 -33 60 -16 30 -36 67 -45 82 -37 59 -72
121 -72 129 0 5 -4 9 -10 9 -5 0 -10 7 -10 15 0 8 -4 15 -10 15 -5 0 -10 5
-10 10 0 9 -115 186 -130 200 -3 3 -21 28 -40 55 -19 28 -38 52 -42 53 -4 2
-8 10 -8 17 0 7 -3 15 -7 17 -5 2 -39 41 -76 88 -38 47 -83 103 -100 124 -60
74 -442 452 -537 532 -52 43 -97 81 -100 84 -3 3 -21 17 -40 30 -19 14 -42 30
-50 37 -48 40 -192 143 -200 143 -4 0 -10 4 -12 9 -3 9 -194 132 -279 180
-174 97 -265 145 -271 143 -5 -1 -8 2 -8 8 0 6 -3 9 -7 8 -5 -1 -57 22 -118
51 -111 54 -152 72 -170 77 -5 1 -42 16 -81 32 -39 16 -100 40 -135 52 -35 12
-71 24 -79 27 -8 4 -18 7 -22 8 -5 2 -10 4 -13 5 -3 1 -8 3 -12 5 -5 1 -15 4
-23 8 -8 3 -35 12 -60 18 -53 15 -51 14 -70 21 -18 7 -234 65 -270 73 -23 4
-78 17 -125 28 -11 3 -42 8 -69 11 -27 4 -52 9 -55 11 -3 1 -24 6 -46 9 -22 3
-57 9 -78 12 -63 10 -90 14 -137 18 -131 14 -177 19 -200 23 -32 5 -666 14
-671 9z"/>
</g>
</svg>
