<svg width="32" height="32" viewBox="0 0 32 32" fill="none" xmlns="http://www.w3.org/2000/svg">
<path d="M28.96 11H21.34C21.0323 11.0013 20.7275 10.9417 20.443 10.8245C20.1585 10.7074 19.9 10.5351 19.6825 10.3175C19.4649 10.1 19.2926 9.8415 19.1755 9.55701C19.0583 9.27252 18.9987 8.96766 19 8.66V1.04C20.0915 1.17888 21.1052 1.67871 21.88 2.46L27.54 8.12C28.3211 8.89492 28.8209 9.90858 28.96 11ZM29 13V26C28.9995 27.3259 28.4725 28.5974 27.5349 29.5349C26.5974 30.4725 25.3259 30.9995 24 31H8C6.67408 30.9995 5.40262 30.4725 4.46505 29.5349C3.52748 28.5974 3.00053 27.3259 3 26V6C3.00053 4.67408 3.52748 3.40262 4.46505 2.46505C5.40262 1.52748 6.67408 1.00053 8 1H17V8.66C16.9995 9.23008 17.1114 9.79468 17.3293 10.3215C17.5472 10.8483 17.8669 11.3269 18.27 11.73C18.6731 12.1331 19.1517 12.4528 19.6785 12.6707C20.2053 12.8886 20.7699 13.0005 21.34 13H29ZM20.707 16.627C20.5195 16.4395 20.2652 16.3342 20 16.3342C19.7348 16.3342 19.4805 16.4395 19.293 16.627L14.667 21.252L12.707 19.293C12.5184 19.1108 12.2658 19.01 12.0036 19.0123C11.7414 19.0146 11.4906 19.1198 11.3052 19.3052C11.1198 19.4906 11.0146 19.7414 11.0123 20.0036C11.01 20.2658 11.1108 20.5184 11.293 20.707L13.96 23.373C14.1475 23.5605 14.4018 23.6658 14.667 23.6658C14.9322 23.6658 15.1865 23.5605 15.374 23.373L20.707 18.041C20.8945 17.8535 20.9998 17.5992 20.9998 17.334C20.9998 17.0688 20.8945 16.8145 20.707 16.627Z" fill="url(#paint0_linear_1_9714)"/>
<defs>
<linearGradient id="paint0_linear_1_9714" x1="29" y1="36.5" x2="-6.5" y2="-27" gradientUnits="userSpaceOnUse">
<stop offset="0.334819" stop-color="#F5EE97"/>
<stop offset="0.647685" stop-color="#F5EE97" stop-opacity="0"/>
</linearGradient>
</defs>
</svg>
