<svg width="32" height="32" viewBox="0 0 32 32" fill="none" xmlns="http://www.w3.org/2000/svg">
<path fill-rule="evenodd" clip-rule="evenodd" d="M17.7844 15.9612L15.9331 13.1851V8.44824C15.9331 6.55811 14.4087 5 12.4856 5H3.44824C1.53491 5 0 6.54883 0 8.44824V13.9707C0 15.8657 1.5293 17.4187 3.44824 17.4187H17.0044C17.7512 17.4187 18.1995 16.5837 17.7844 15.9612ZM7.94043 13.9043H4.98047C4.47559 13.9043 4.04126 13.5159 4.01782 13.0115C3.99316 12.4729 4.42139 12.0293 4.95435 12.0293H7.96704C8.49902 12.0293 8.92822 12.4729 8.90332 13.0112C8.88013 13.5159 8.44556 13.9043 7.94043 13.9043ZM10.9795 10.3894H4.98096C4.47632 10.3894 4.04224 10.002 4.01807 9.49805C3.99219 8.95947 4.4209 8.5144 4.95435 8.5144H10.9529C11.458 8.5144 11.8926 8.90283 11.9158 9.40747C11.9407 9.9458 11.5115 10.3894 10.9795 10.3894ZM26.1562 17.3697C27.2651 16.6586 28 15.4151 28 13.9999C28 11.7909 26.2091 10 24.0001 10C21.7909 10 20 11.7909 20 13.9999C20 15.4152 20.735 16.6587 21.844 17.3698C19.5866 18.1625 17.7277 20.1691 16.7321 22.7998C16.1068 24.4522 17.5255 26 19.2922 26H28.7078C30.4745 26 31.8932 24.4522 31.2679 22.7998C30.2723 20.169 28.4134 18.1623 26.1562 17.3697Z" fill="url(#paint0_linear_1_9719)"/>
<defs>
<linearGradient id="paint0_linear_1_9719" x1="31" y1="29" x2="23.2577" y2="-9.74801" gradientUnits="userSpaceOnUse">
<stop stop-color="#38B09B"/>
<stop offset="1" stop-color="#38B09B" stop-opacity="0"/>
</linearGradient>
</defs>
</svg>
