<svg width="32" height="32" viewBox="0 0 32 32" fill="none" xmlns="http://www.w3.org/2000/svg">
<path d="M16 15C14.1442 15.0021 12.3648 15.7402 11.0525 17.0525C9.7402 18.3648 9.00206 20.1442 9.00005 22C8.99557 23.1598 9.28453 24.3019 9.84005 25.32C9.90005 25.42 9.94005 25.5201 10 25.6C10.6212 26.6369 11.5003 27.4951 12.5519 28.0909C13.6034 28.6868 14.7914 29 16 29C17.2087 29 18.3967 28.6868 19.4482 28.0909C20.4998 27.4951 21.3789 26.6369 22 25.6C22.06 25.5201 22.1 25.42 22.16 25.32C22.7156 24.3019 23.0045 23.1598 23 22C22.998 20.1442 22.2599 18.3648 20.9476 17.0525C19.6353 15.7402 17.8559 15.0021 16 15ZM19.7001 20.7001L15.7 24.7001C15.6098 24.7949 15.5012 24.8703 15.3808 24.9219C15.2605 24.9735 15.131 25.0001 15 25.0001C14.8691 25.0001 14.7396 24.9735 14.6193 24.9219C14.4989 24.8703 14.3903 24.7949 14.3 24.7001L12.3 22.7001C12.1175 22.5138 12.0158 22.2629 12.0171 22.0021C12.0184 21.7413 12.1226 21.4915 12.3071 21.3071C12.4915 21.1226 12.7413 21.0185 13.0021 21.0171C13.2629 21.0158 13.5138 21.1175 13.7 21.3L15 22.58L18.3 19.3C18.4863 19.1175 18.7371 19.0158 18.998 19.0171C19.2588 19.0185 19.5086 19.1226 19.693 19.3071C19.8775 19.4915 19.9816 19.7413 19.983 20.0021C19.9843 20.2629 19.8826 20.5138 19.7001 20.7001ZM3.00005 9.00005H29V24C29.0014 24.1317 28.9764 24.2624 28.9266 24.3843C28.8768 24.5062 28.8032 24.617 28.7101 24.7101C28.617 24.8032 28.5062 24.8768 28.3843 24.9266C28.2624 24.9764 28.1317 25.0014 28 25H24.48C24.8272 24.0381 25.0032 23.0227 25 22C25 19.6131 24.0518 17.3239 22.364 15.6361C20.6762 13.9483 18.387 13 16 13C13.6131 13 11.3239 13.9483 9.63609 15.6361C7.94826 17.3239 7.00005 19.6131 7.00005 22C6.99688 23.0227 7.17287 24.0381 7.52005 25H4.00005C3.86836 25.0014 3.73774 24.9764 3.61582 24.9266C3.4939 24.8768 3.38314 24.8032 3.29002 24.7101C3.1969 24.617 3.12329 24.5062 3.0735 24.3843C3.02371 24.2624 2.99874 24.1317 3.00005 24V9.00005ZM3.00005 4.00005C2.99874 3.86836 3.02371 3.73774 3.0735 3.61582C3.12329 3.4939 3.1969 3.38314 3.29002 3.29002C3.38314 3.1969 3.4939 3.12329 3.61582 3.0735C3.73774 3.02371 3.86836 2.99874 4.00005 3.00005H28C28.1317 2.99874 28.2624 3.02371 28.3843 3.0735C28.5062 3.12329 28.617 3.1969 28.7101 3.29002C28.8032 3.38314 28.8768 3.4939 28.9266 3.61582C28.9764 3.73774 29.0014 3.86836 29 4.00005V7.00005H3.00005V4.00005Z" fill="url(#paint0_linear_1_9710)"/>
<defs>
<linearGradient id="paint0_linear_1_9710" x1="29" y1="29" x2="-1" y2="-8.5" gradientUnits="userSpaceOnUse">
<stop stop-color="#446CCD"/>
<stop offset="1" stop-color="#446CCD" stop-opacity="0"/>
</linearGradient>
</defs>
</svg>