<svg width="32" height="32" viewBox="0 0 32 32" fill="none" xmlns="http://www.w3.org/2000/svg">
<path d="M10 9H5L11 3V8C11 8.26522 10.8946 8.51957 10.7071 8.70711C10.5196 8.89464 10.2652 9 10 9ZM12 25H20C20.2651 24.9997 20.5193 24.8942 20.7068 24.7068C20.8942 24.5193 20.9997 24.2651 21 24C20.9951 23.1073 20.7511 22.2322 20.2931 21.4658C19.8352 20.6995 19.1803 20.0699 18.3964 19.6426C18.262 19.5686 18.1464 19.4646 18.0585 19.3387C17.9707 19.2128 17.9131 19.0684 17.8901 18.9167C17.867 18.7649 17.8792 18.6099 17.9257 18.4637C17.9722 18.3174 18.0518 18.1838 18.1582 18.0732C18.5672 17.6496 18.8425 17.1149 18.9498 16.5359C19.0571 15.9569 18.9916 15.3591 18.7615 14.8171C18.5314 14.2751 18.1468 13.8127 17.6558 13.4877C17.1647 13.1627 16.5889 12.9894 16 12.9894C15.4111 12.9894 14.8353 13.1627 14.3442 13.4877C13.8532 13.8127 13.4686 14.2751 13.2385 14.8171C13.0084 15.3591 12.9429 15.9569 13.0502 16.5359C13.1575 17.1149 13.4328 17.6496 13.8418 18.0732C13.9482 18.1838 14.0278 18.3174 14.0743 18.4637C14.1208 18.6099 14.133 18.7649 14.1099 18.9167C14.0869 19.0684 14.0293 19.2128 13.9415 19.3387C13.8536 19.4646 13.738 19.5686 13.6036 19.6426C12.8197 20.0699 12.1648 20.6995 11.7069 21.4658C11.2489 22.2322 11.0049 23.1073 11 24C11.0003 24.2651 11.1058 24.5193 11.2932 24.7068C11.4807 24.8942 11.7349 24.9997 12 25ZM4 11H10C10.7954 10.9991 11.5579 10.6827 12.1203 10.1203C12.6827 9.55791 12.9991 8.79537 13 8V2H26C26.53 2.00153 27.0378 2.21274 27.4125 2.58748C27.7873 2.96222 27.9985 3.47004 28 4V28C27.9985 28.53 27.7873 29.0378 27.4125 29.4125C27.0378 29.7873 26.53 29.9985 26 30H6C5.47004 29.9985 4.96222 29.7873 4.58748 29.4125C4.21274 29.0378 4.00153 28.53 4 28V11ZM9 24C9.0009 24.7954 9.31726 25.5579 9.87967 26.1203C10.4421 26.6827 11.2046 26.9991 12 27H20C20.7954 26.9991 21.5579 26.6827 22.1203 26.1203C22.6827 25.5579 22.9991 24.7954 23 24C22.997 22.9428 22.7537 21.9 22.2884 20.9507C21.8231 20.0013 21.1481 19.1701 20.3144 18.52C20.7642 17.7564 21.001 16.8862 21 16C21 14.6739 20.4732 13.4021 19.5355 12.4645C18.5979 11.5268 17.3261 11 16 11C14.6739 11 13.4021 11.5268 12.4645 12.4645C11.5268 13.4021 11 14.6739 11 16C10.999 16.8862 11.2358 17.7564 11.6856 18.52C10.8519 19.1701 10.1769 20.0013 9.71161 20.9507C9.24635 21.9 9.00301 22.9428 9 24Z" fill="url(#paint0_linear_1_9726)"/>
<defs>
<linearGradient id="paint0_linear_1_9726" x1="23.5" y1="30" x2="-2.5" y2="-28.5" gradientUnits="userSpaceOnUse">
<stop stop-color="#A4C8E1"/>
<stop offset="1" stop-color="#EEF7FD" stop-opacity="0"/>
</linearGradient>
</defs>
</svg>
