<svg width="1440" height="2584" viewBox="0 0 1440 2584" fill="none" xmlns="http://www.w3.org/2000/svg">
<path d="M-80.1657 45.4583L-80.8043 43.7865L-3.06677 14.1906L-83 -16.24L-3.06917 -46.6658L-83 -77.094L-3.06917 -107.52L-83 -137.946L-3.06917 -168.367L-83 -198.79L-3.06917 -229.206L-83 -259.632L-3.06917 -290.053L-83 -320.477L-3.06917 -350.9L-83 -381.321L-0.87352 -412.579L-0.234909 -410.905L-77.9701 -381.321L1.96074 -350.9L-77.9701 -320.477L1.96074 -290.053L-77.9701 -259.632L1.96074 -229.206L-77.9701 -198.79L1.96074 -168.367L-77.9701 -137.946L1.96074 -107.52L-77.9701 -77.094L1.96074 -46.6658L-77.9701 -16.24L1.96074 14.1906L-80.1657 45.4583Z" fill="#E8F1F7"/>
<path d="M-0.234101 15.0374L-0.872709 13.3632L76.8625 -16.2303L-3.06836 -46.6609L76.8625 -77.0891L-3.06836 -107.515L76.8625 -137.943L-3.06836 -168.366L76.8625 -198.79L-3.06836 -229.211L76.8625 -259.63L-3.06836 -290.053L76.8625 -320.476L-3.06836 -350.9L76.8625 -381.321L-3.06836 -411.742L79.0581 -443L79.6943 -441.328L1.96155 -411.742L81.8924 -381.321L1.96155 -350.9L81.8924 -320.476L1.96155 -290.053L81.8924 -259.63L1.96155 -229.211L81.8924 -198.79L1.96155 -168.366L81.8924 -137.943L1.96155 -107.515L81.8924 -77.0891L1.96155 -46.6609L81.89 -16.2303L-0.234101 15.0374Z" fill="#E8F1F7"/>
<path d="M79.6932 45.4583L79.057 43.7865L156.792 14.1906L76.8613 -16.24L156.79 -46.6658L76.8613 -77.094L156.79 -107.52L76.8613 -137.946L156.79 -168.367L76.8613 -198.79L156.79 -229.206L76.8613 -259.632L156.79 -290.053L76.8613 -320.477L156.79 -350.9L76.8613 -381.321L158.985 -412.579L159.624 -410.905L81.8912 -381.321L161.82 -350.9L81.8912 -320.477L161.82 -290.053L81.8912 -259.632L161.82 -229.206L81.8912 -198.79L161.82 -168.367L81.8912 -137.946L161.82 -107.52L81.8912 -77.094L161.82 -46.6658L81.8912 -16.24L161.82 14.1906L79.6932 45.4583Z" fill="#E8F1F7"/>
<path d="M159.624 15.0374L158.986 13.3632L236.723 -16.2303L156.79 -46.6609L236.721 -77.0891L156.79 -107.515L236.721 -137.943L156.79 -168.366L236.721 -198.79L156.79 -229.211L236.721 -259.63L156.79 -290.053L236.721 -320.476L156.79 -350.9L236.721 -381.321L156.79 -411.742L238.919 -443L239.555 -441.328L161.82 -411.742L241.751 -381.321L161.82 -350.9L241.751 -320.476L161.82 -290.053L241.751 -259.63L161.82 -229.211L241.751 -198.79L161.82 -168.366L241.751 -137.943L161.82 -107.515L241.751 -77.0891L161.82 -46.6609L241.751 -16.2303L159.624 15.0374Z" fill="#E8F1F7"/>
<path d="M239.555 45.4583L238.919 43.7865L316.652 14.1906L236.721 -16.24L316.652 -46.6658L236.721 -77.094L316.652 -107.52L236.721 -137.946L316.652 -168.367L236.721 -198.79L316.652 -229.206L236.721 -259.632L316.652 -290.053L236.721 -320.477L316.652 -350.9L236.721 -381.321L318.847 -412.579L319.486 -410.905L241.751 -381.321L321.681 -350.9L241.751 -320.477L321.681 -290.053L241.751 -259.632L321.681 -229.206L241.751 -198.79L321.681 -168.367L241.751 -137.946L321.681 -107.52L241.751 -77.094L321.681 -46.6658L241.751 -16.24L321.679 14.1906L239.555 45.4583Z" fill="#E8F1F7"/>
<path d="M319.486 15.0374L318.847 13.3632L396.582 -16.2303L316.651 -46.6609L396.58 -77.0891L316.651 -107.515L396.58 -137.943L316.651 -168.366L396.58 -198.79L316.651 -229.211L396.58 -259.63L316.651 -290.053L396.58 -320.476L316.651 -350.9L396.58 -381.321L316.651 -411.742L398.778 -443L399.414 -441.328L321.681 -411.742L401.61 -381.321L321.681 -350.9L401.61 -320.476L321.681 -290.053L401.61 -259.63L321.681 -229.211L401.61 -198.79L321.681 -168.366L401.61 -137.943L321.681 -107.515L401.61 -77.0891L321.681 -46.6609L401.61 -16.2303L319.486 15.0374Z" fill="#E8F1F7"/>
<path d="M399.414 45.4583L398.778 43.7865L476.513 14.1906L396.58 -16.24L476.511 -46.6658L396.58 -77.094L476.511 -107.52L396.58 -137.946L476.511 -168.367L396.58 -198.79L476.511 -229.206L396.58 -259.632L476.511 -290.053L396.58 -320.477L476.511 -350.9L396.58 -381.321L478.709 -412.579L479.345 -410.905L401.61 -381.321L481.541 -350.9L401.61 -320.477L481.541 -290.053L401.61 -259.632L481.541 -229.206L401.61 -198.79L481.541 -168.367L401.61 -137.946L481.541 -107.52L401.61 -77.094L481.541 -46.6658L401.61 -16.24L481.541 14.1906L399.414 45.4583Z" fill="#E8F1F7"/>
<path d="M479.345 15.0374L478.709 13.3632L556.442 -16.2303L476.511 -46.6609L556.442 -77.0891L476.511 -107.515L556.442 -137.943L476.511 -168.366L556.442 -198.79L476.511 -229.211L556.442 -259.63L476.511 -290.053L556.442 -320.476L476.511 -350.9L556.442 -381.321L476.511 -411.742L558.637 -443L559.276 -441.328L481.541 -411.742L561.471 -381.321L481.541 -350.9L561.471 -320.476L481.541 -290.053L561.471 -259.63L481.541 -229.211L561.471 -198.79L481.541 -168.366L561.471 -137.943L481.541 -107.515L561.471 -77.0891L481.541 -46.6609L561.471 -16.2303L479.345 15.0374Z" fill="#E8F1F7"/>
<path d="M559.277 45.4583L558.638 43.7865L636.373 14.1906L556.442 -16.24L636.371 -46.6658L556.442 -77.094L636.371 -107.52L556.442 -137.946L636.371 -168.367L556.442 -198.79L636.371 -229.206L556.442 -259.632L636.371 -290.053L556.442 -320.477L636.371 -350.9L556.442 -381.321L638.569 -412.579L639.205 -410.905L561.472 -381.321L641.403 -350.9L561.472 -320.477L641.403 -290.053L561.472 -259.632L641.403 -229.206L561.472 -198.79L641.403 -168.367L561.472 -137.946L641.403 -107.52L561.472 -77.094L641.403 -46.6658L561.472 -16.24L641.401 14.1906L559.277 45.4583Z" fill="#E8F1F7"/>
<path d="M639.204 15.0374L638.568 13.3632L716.303 -16.2303L636.37 -46.6609L716.301 -77.0891L636.37 -107.515L716.301 -137.943L636.37 -168.366L716.301 -198.79L636.37 -229.211L716.301 -259.63L636.37 -290.053L716.301 -320.476L636.37 -350.9L716.301 -381.321L636.37 -411.742L718.499 -443L719.135 -441.328L641.402 -411.742L721.333 -381.321L641.402 -350.9L721.333 -320.476L641.402 -290.053L721.333 -259.63L641.402 -229.211L721.333 -198.79L641.402 -168.366L721.333 -137.943L641.402 -107.515L721.333 -77.0891L641.402 -46.6609L721.331 -16.2303L639.204 15.0374Z" fill="#E8F1F7"/>
<path d="M-80.1657 897.313L-80.8043 895.641L-3.06677 866.046L-83 835.615L-3.06917 805.189L-83 774.761L-3.06917 744.335L-83 713.909L-3.06917 683.488L-83 653.065L-3.06917 622.649L-83 592.223L-3.06917 561.802L-83 531.378L-3.06917 500.955L-83 470.534L-0.87352 439.276L-0.234909 440.95L-77.9701 470.534L1.96074 500.955L-77.9701 531.378L1.96074 561.802L-77.9701 592.223L1.96074 622.649L-77.9701 653.065L1.96074 683.488L-77.9701 713.909L1.96074 744.335L-77.9701 774.761L1.96074 805.189L-77.9701 835.615L1.96074 866.046L-80.1657 897.313Z" fill="#E8F1F7"/>
<path d="M-0.234101 866.892L-0.872709 865.218L76.8625 835.624L-3.06836 805.194L76.8625 774.765L-3.06836 744.34L76.8625 713.911L-3.06836 683.488L76.8625 653.065L-3.06836 622.644L76.8625 592.225L-3.06836 561.802L76.8625 531.378L-3.06836 500.955L76.8625 470.534L-3.06836 440.113L79.0581 408.854L79.6943 410.526L1.96155 440.113L81.8924 470.534L1.96155 500.955L81.8924 531.378L1.96155 561.802L81.8924 592.225L1.96155 622.644L81.8924 653.065L1.96155 683.488L81.8924 713.911L1.96155 744.34L81.8924 774.765L1.96155 805.194L81.89 835.624L-0.234101 866.892Z" fill="#E8F1F7"/>
<path d="M79.6932 897.313L79.057 895.641L156.792 866.046L76.8613 835.615L156.79 805.189L76.8613 774.761L156.79 744.335L76.8613 713.909L156.79 683.488L76.8613 653.065L156.79 622.649L76.8613 592.223L156.79 561.802L76.8613 531.378L156.79 500.955L76.8613 470.534L158.985 439.276L159.624 440.95L81.8912 470.534L161.82 500.955L81.8912 531.378L161.82 561.802L81.8912 592.223L161.82 622.649L81.8912 653.065L161.82 683.488L81.8912 713.909L161.82 744.335L81.8912 774.761L161.82 805.189L81.8912 835.615L161.82 866.046L79.6932 897.313Z" fill="#E8F1F7"/>
<path d="M159.624 866.892L158.986 865.218L236.723 835.624L156.79 805.194L236.721 774.765L156.79 744.34L236.721 713.911L156.79 683.488L236.721 653.065L156.79 622.644L236.721 592.225L156.79 561.802L236.721 531.378L156.79 500.955L236.721 470.534L156.79 440.113L238.919 408.854L239.555 410.526L161.82 440.113L241.751 470.534L161.82 500.955L241.751 531.378L161.82 561.802L241.751 592.225L161.82 622.644L241.751 653.065L161.82 683.488L241.751 713.911L161.82 744.34L241.751 774.765L161.82 805.194L241.751 835.624L159.624 866.892Z" fill="#E8F1F7"/>
<path d="M239.555 897.313L238.919 895.641L316.652 866.046L236.721 835.615L316.652 805.189L236.721 774.761L316.652 744.335L236.721 713.909L316.652 683.488L236.721 653.065L316.652 622.649L236.721 592.223L316.652 561.802L236.721 531.378L316.652 500.955L236.721 470.534L318.847 439.276L319.486 440.95L241.751 470.534L321.681 500.955L241.751 531.378L321.681 561.802L241.751 592.223L321.681 622.649L241.751 653.065L321.681 683.488L241.751 713.909L321.681 744.335L241.751 774.761L321.681 805.189L241.751 835.615L321.679 866.046L239.555 897.313Z" fill="#E8F1F7"/>
<path d="M319.486 866.892L318.847 865.218L396.582 835.624L316.651 805.194L396.58 774.765L316.651 744.34L396.58 713.911L316.651 683.488L396.58 653.065L316.651 622.644L396.58 592.225L316.651 561.802L396.58 531.378L316.651 500.955L396.58 470.534L316.651 440.113L398.778 408.854L399.414 410.526L321.681 440.113L401.61 470.534L321.681 500.955L401.61 531.378L321.681 561.802L401.61 592.225L321.681 622.644L401.61 653.065L321.681 683.488L401.61 713.911L321.681 744.34L401.61 774.765L321.681 805.194L401.61 835.624L319.486 866.892Z" fill="#E8F1F7"/>
<path d="M399.414 897.313L398.778 895.641L476.513 866.046L396.58 835.615L476.511 805.189L396.58 774.761L476.511 744.335L396.58 713.909L476.511 683.488L396.58 653.065L476.511 622.649L396.58 592.223L476.511 561.802L396.58 531.378L476.511 500.955L396.58 470.534L478.709 439.276L479.345 440.95L401.61 470.534L481.541 500.955L401.61 531.378L481.541 561.802L401.61 592.223L481.541 622.649L401.61 653.065L481.541 683.488L401.61 713.909L481.541 744.335L401.61 774.761L481.541 805.189L401.61 835.615L481.541 866.046L399.414 897.313Z" fill="#E8F1F7"/>
<path d="M479.345 866.892L478.709 865.218L556.442 835.624L476.511 805.194L556.442 774.765L476.511 744.34L556.442 713.911L476.511 683.488L556.442 653.065L476.511 622.644L556.442 592.225L476.511 561.802L556.442 531.378L476.511 500.955L556.442 470.534L476.511 440.113L558.637 408.854L559.276 410.526L481.541 440.113L561.471 470.534L481.541 500.955L561.471 531.378L481.541 561.802L561.471 592.225L481.541 622.644L561.471 653.065L481.541 683.488L561.471 713.911L481.541 744.34L561.471 774.765L481.541 805.194L561.471 835.624L479.345 866.892Z" fill="#E8F1F7"/>
<path d="M559.277 897.313L558.638 895.641L636.373 866.046L556.442 835.615L636.371 805.189L556.442 774.761L636.371 744.335L556.442 713.909L636.371 683.488L556.442 653.065L636.371 622.649L556.442 592.223L636.371 561.802L556.442 531.378L636.371 500.955L556.442 470.534L638.569 439.276L639.205 440.95L561.472 470.534L641.403 500.955L561.472 531.378L641.403 561.802L561.472 592.223L641.403 622.649L561.472 653.065L641.403 683.488L561.472 713.909L641.403 744.335L561.472 774.761L641.403 805.189L561.472 835.615L641.401 866.046L559.277 897.313Z" fill="#E8F1F7"/>
<path d="M639.204 866.892L638.568 865.218L716.303 835.624L636.37 805.194L716.301 774.765L636.37 744.34L716.301 713.911L636.37 683.488L716.301 653.065L636.37 622.644L716.301 592.225L636.37 561.802L716.301 531.378L636.37 500.955L716.301 470.534L636.37 440.113L718.499 408.854L719.135 410.526L641.402 440.113L721.333 470.534L641.402 500.955L721.333 531.378L641.402 561.802L721.333 592.225L641.402 622.644L721.333 653.065L641.402 683.488L721.333 713.911L641.402 744.34L721.333 774.765L641.402 805.194L721.331 835.624L639.204 866.892Z" fill="#E8F1F7"/>
<path d="M-80.1657 471.386L-80.8043 469.714L-3.06677 440.118L-83 409.688L-3.06917 379.262L-83 348.833L-3.06917 318.408L-83 287.982L-3.06917 257.561L-83 227.137L-3.06917 196.721L-83 166.295L-3.06917 135.874L-83 105.451L-3.06917 75.0276L-83 44.6065L-0.87352 13.3484L-0.234909 15.0226L-77.9701 44.6065L1.96074 75.0276L-77.9701 105.451L1.96074 135.874L-77.9701 166.295L1.96074 196.721L-77.9701 227.137L1.96074 257.561L-77.9701 287.982L1.96074 318.408L-77.9701 348.833L1.96074 379.262L-77.9701 409.688L1.96074 440.118L-80.1657 471.386Z" fill="#E8F1F7"/>
<path d="M-0.234101 440.965L-0.872709 439.29L76.8625 409.697L-3.06836 379.266L76.8625 348.838L-3.06836 318.412L76.8625 287.984L-3.06836 257.561L76.8625 227.137L-3.06836 196.716L76.8625 166.298L-3.06836 135.874L76.8625 105.451L-3.06836 75.0274L76.8625 44.6064L-3.06836 14.1854L79.0581 -17.0728L79.6943 -15.4009L1.96155 14.1854L81.8924 44.6064L1.96155 75.0274L81.8924 105.451L1.96155 135.874L81.8924 166.298L1.96155 196.716L81.8924 227.137L1.96155 257.561L81.8924 287.984L1.96155 318.412L81.8924 348.838L1.96155 379.266L81.89 409.697L-0.234101 440.965Z" fill="#E8F1F7"/>
<path d="M79.6932 471.386L79.057 469.714L156.792 440.118L76.8613 409.688L156.79 379.262L76.8613 348.833L156.79 318.408L76.8613 287.982L156.79 257.561L76.8613 227.137L156.79 196.721L76.8613 166.295L156.79 135.874L76.8613 105.451L156.79 75.0276L76.8613 44.6065L158.985 13.3484L159.624 15.0226L81.8912 44.6065L161.82 75.0276L81.8912 105.451L161.82 135.874L81.8912 166.295L161.82 196.721L81.8912 227.137L161.82 257.561L81.8912 287.982L161.82 318.408L81.8912 348.833L161.82 379.262L81.8912 409.688L161.82 440.118L79.6932 471.386Z" fill="#E8F1F7"/>
<path d="M159.624 440.965L158.986 439.29L236.723 409.697L156.79 379.266L236.721 348.838L156.79 318.412L236.721 287.984L156.79 257.561L236.721 227.137L156.79 196.716L236.721 166.298L156.79 135.874L236.721 105.451L156.79 75.0274L236.721 44.6064L156.79 14.1854L238.919 -17.0728L239.555 -15.4009L161.82 14.1854L241.751 44.6064L161.82 75.0274L241.751 105.451L161.82 135.874L241.751 166.298L161.82 196.716L241.751 227.137L161.82 257.561L241.751 287.984L161.82 318.412L241.751 348.838L161.82 379.266L241.751 409.697L159.624 440.965Z" fill="#E8F1F7"/>
<path d="M239.555 471.386L238.919 469.714L316.652 440.118L236.721 409.688L316.652 379.262L236.721 348.833L316.652 318.408L236.721 287.982L316.652 257.561L236.721 227.137L316.652 196.721L236.721 166.295L316.652 135.874L236.721 105.451L316.652 75.0276L236.721 44.6065L318.847 13.3484L319.486 15.0226L241.751 44.6065L321.681 75.0276L241.751 105.451L321.681 135.874L241.751 166.295L321.681 196.721L241.751 227.137L321.681 257.561L241.751 287.982L321.681 318.408L241.751 348.833L321.681 379.262L241.751 409.688L321.679 440.118L239.555 471.386Z" fill="#E8F1F7"/>
<path d="M319.486 440.965L318.847 439.29L396.582 409.697L316.651 379.266L396.58 348.838L316.651 318.412L396.58 287.984L316.651 257.561L396.58 227.137L316.651 196.716L396.58 166.298L316.651 135.874L396.58 105.451L316.651 75.0274L396.58 44.6064L316.651 14.1854L398.778 -17.0728L399.414 -15.4009L321.681 14.1854L401.61 44.6064L321.681 75.0274L401.61 105.451L321.681 135.874L401.61 166.298L321.681 196.716L401.61 227.137L321.681 257.561L401.61 287.984L321.681 318.412L401.61 348.838L321.681 379.266L401.61 409.697L319.486 440.965Z" fill="#E8F1F7"/>
<path d="M399.414 471.386L398.778 469.714L476.513 440.118L396.58 409.688L476.511 379.262L396.58 348.833L476.511 318.408L396.58 287.982L476.511 257.561L396.58 227.137L476.511 196.721L396.58 166.295L476.511 135.874L396.58 105.451L476.511 75.0276L396.58 44.6065L478.709 13.3484L479.345 15.0226L401.61 44.6065L481.541 75.0276L401.61 105.451L481.541 135.874L401.61 166.295L481.541 196.721L401.61 227.137L481.541 257.561L401.61 287.982L481.541 318.408L401.61 348.833L481.541 379.262L401.61 409.688L481.541 440.118L399.414 471.386Z" fill="#E8F1F7"/>
<path d="M479.345 440.965L478.709 439.29L556.442 409.697L476.511 379.266L556.442 348.838L476.511 318.412L556.442 287.984L476.511 257.561L556.442 227.137L476.511 196.716L556.442 166.298L476.511 135.874L556.442 105.451L476.511 75.0274L556.442 44.6064L476.511 14.1854L558.637 -17.0728L559.276 -15.4009L481.541 14.1854L561.471 44.6064L481.541 75.0274L561.471 105.451L481.541 135.874L561.471 166.298L481.541 196.716L561.471 227.137L481.541 257.561L561.471 287.984L481.541 318.412L561.471 348.838L481.541 379.266L561.471 409.697L479.345 440.965Z" fill="#E8F1F7"/>
<path d="M559.277 471.386L558.638 469.714L636.373 440.118L556.442 409.688L636.371 379.262L556.442 348.833L636.371 318.408L556.442 287.982L636.371 257.561L556.442 227.137L636.371 196.721L556.442 166.295L636.371 135.874L556.442 105.451L636.371 75.0276L556.442 44.6065L638.569 13.3484L639.205 15.0226L561.472 44.6065L641.403 75.0276L561.472 105.451L641.403 135.874L561.472 166.295L641.403 196.721L561.472 227.137L641.403 257.561L561.472 287.982L641.403 318.408L561.472 348.833L641.403 379.262L561.472 409.688L641.401 440.118L559.277 471.386Z" fill="#E8F1F7"/>
<path d="M639.204 440.965L638.568 439.29L716.303 409.697L636.37 379.266L716.301 348.838L636.37 318.412L716.301 287.984L636.37 257.561L716.301 227.137L636.37 196.716L716.301 166.298L636.37 135.874L716.301 105.451L636.37 75.0274L716.301 44.6064L636.37 14.1854L718.499 -17.0728L719.135 -15.4009L641.402 14.1854L721.333 44.6064L641.402 75.0274L721.333 105.451L641.402 135.874L721.333 166.298L641.402 196.716L721.333 227.137L641.402 257.561L721.333 287.984L641.402 318.412L721.333 348.838L641.402 379.266L721.331 409.697L639.204 440.965Z" fill="#E8F1F7"/>
<path d="M-80.1657 1323.24L-80.8043 1321.57L-3.06677 1291.97L-83 1261.54L-3.06917 1231.12L-83 1200.69L-3.06917 1170.26L-83 1139.84L-3.06917 1109.42L-83 1078.99L-3.06917 1048.58L-83 1018.15L-3.06917 987.729L-83 957.306L-3.06917 926.882L-83 896.461L-0.87352 865.203L-0.234909 866.877L-77.9701 896.461L1.96074 926.882L-77.9701 957.306L1.96074 987.729L-77.9701 1018.15L1.96074 1048.58L-77.9701 1078.99L1.96074 1109.42L-77.9701 1139.84L1.96074 1170.26L-77.9701 1200.69L1.96074 1231.12L-77.9701 1261.54L1.96074 1291.97L-80.1657 1323.24Z" fill="#E8F1F7"/>
<path d="M-0.234101 1292.82L-0.872709 1291.14L76.8625 1261.55L-3.06836 1231.12L76.8625 1200.69L-3.06836 1170.27L76.8625 1139.84L-3.06836 1109.42L76.8625 1078.99L-3.06836 1048.57L76.8625 1018.15L-3.06836 987.729L76.8625 957.305L-3.06836 926.882L76.8625 896.461L-3.06836 866.04L79.0581 834.782L79.6943 836.454L1.96155 866.04L81.8924 896.461L1.96155 926.882L81.8924 957.305L1.96155 987.729L81.8924 1018.15L1.96155 1048.57L81.8924 1078.99L1.96155 1109.42L81.8924 1139.84L1.96155 1170.27L81.8924 1200.69L1.96155 1231.12L81.89 1261.55L-0.234101 1292.82Z" fill="#E8F1F7"/>
<path d="M79.6932 1323.24L79.057 1321.57L156.792 1291.97L76.8613 1261.54L156.79 1231.12L76.8613 1200.69L156.79 1170.26L76.8613 1139.84L156.79 1109.42L76.8613 1078.99L156.79 1048.58L76.8613 1018.15L156.79 987.729L76.8613 957.306L156.79 926.882L76.8613 896.461L158.985 865.203L159.624 866.877L81.8912 896.461L161.82 926.882L81.8912 957.306L161.82 987.729L81.8912 1018.15L161.82 1048.58L81.8912 1078.99L161.82 1109.42L81.8912 1139.84L161.82 1170.26L81.8912 1200.69L161.82 1231.12L81.8912 1261.54L161.82 1291.97L79.6932 1323.24Z" fill="#E8F1F7"/>
<path d="M159.624 1292.82L158.986 1291.14L236.723 1261.55L156.79 1231.12L236.721 1200.69L156.79 1170.27L236.721 1139.84L156.79 1109.42L236.721 1078.99L156.79 1048.57L236.721 1018.15L156.79 987.729L236.721 957.305L156.79 926.882L236.721 896.461L156.79 866.04L238.919 834.782L239.555 836.454L161.82 866.04L241.751 896.461L161.82 926.882L241.751 957.305L161.82 987.729L241.751 1018.15L161.82 1048.57L241.751 1078.99L161.82 1109.42L241.751 1139.84L161.82 1170.27L241.751 1200.69L161.82 1231.12L241.751 1261.55L159.624 1292.82Z" fill="#E8F1F7"/>
<path d="M239.555 1323.24L238.919 1321.57L316.652 1291.97L236.721 1261.54L316.652 1231.12L236.721 1200.69L316.652 1170.26L236.721 1139.84L316.652 1109.42L236.721 1078.99L316.652 1048.58L236.721 1018.15L316.652 987.729L236.721 957.306L316.652 926.882L236.721 896.461L318.847 865.203L319.486 866.877L241.751 896.461L321.681 926.882L241.751 957.306L321.681 987.729L241.751 1018.15L321.681 1048.58L241.751 1078.99L321.681 1109.42L241.751 1139.84L321.681 1170.26L241.751 1200.69L321.681 1231.12L241.751 1261.54L321.679 1291.97L239.555 1323.24Z" fill="#E8F1F7"/>
<path d="M319.486 1292.82L318.847 1291.14L396.582 1261.55L316.651 1231.12L396.58 1200.69L316.651 1170.27L396.58 1139.84L316.651 1109.42L396.58 1078.99L316.651 1048.57L396.58 1018.15L316.651 987.729L396.58 957.305L316.651 926.882L396.58 896.461L316.651 866.04L398.778 834.782L399.414 836.454L321.681 866.04L401.61 896.461L321.681 926.882L401.61 957.305L321.681 987.729L401.61 1018.15L321.681 1048.57L401.61 1078.99L321.681 1109.42L401.61 1139.84L321.681 1170.27L401.61 1200.69L321.681 1231.12L401.61 1261.55L319.486 1292.82Z" fill="#E8F1F7"/>
<path d="M399.414 1323.24L398.778 1321.57L476.513 1291.97L396.58 1261.54L476.511 1231.12L396.58 1200.69L476.511 1170.26L396.58 1139.84L476.511 1109.42L396.58 1078.99L476.511 1048.58L396.58 1018.15L476.511 987.729L396.58 957.306L476.511 926.882L396.58 896.461L478.709 865.203L479.345 866.877L401.61 896.461L481.541 926.882L401.61 957.306L481.541 987.729L401.61 1018.15L481.541 1048.58L401.61 1078.99L481.541 1109.42L401.61 1139.84L481.541 1170.26L401.61 1200.69L481.541 1231.12L401.61 1261.54L481.541 1291.97L399.414 1323.24Z" fill="#E8F1F7"/>
<path d="M479.345 1292.82L478.709 1291.14L556.442 1261.55L476.511 1231.12L556.442 1200.69L476.511 1170.27L556.442 1139.84L476.511 1109.42L556.442 1078.99L476.511 1048.57L556.442 1018.15L476.511 987.729L556.442 957.305L476.511 926.882L556.442 896.461L476.511 866.04L558.637 834.782L559.276 836.454L481.541 866.04L561.471 896.461L481.541 926.882L561.471 957.305L481.541 987.729L561.471 1018.15L481.541 1048.57L561.471 1078.99L481.541 1109.42L561.471 1139.84L481.541 1170.27L561.471 1200.69L481.541 1231.12L561.471 1261.55L479.345 1292.82Z" fill="#E8F1F7"/>
<path d="M559.277 1323.24L558.638 1321.57L636.373 1291.97L556.442 1261.54L636.371 1231.12L556.442 1200.69L636.371 1170.26L556.442 1139.84L636.371 1109.42L556.442 1078.99L636.371 1048.58L556.442 1018.15L636.371 987.729L556.442 957.306L636.371 926.882L556.442 896.461L638.569 865.203L639.205 866.877L561.472 896.461L641.403 926.882L561.472 957.306L641.403 987.729L561.472 1018.15L641.403 1048.58L561.472 1078.99L641.403 1109.42L561.472 1139.84L641.403 1170.26L561.472 1200.69L641.403 1231.12L561.472 1261.54L641.401 1291.97L559.277 1323.24Z" fill="#E8F1F7"/>
<path d="M639.204 1292.82L638.568 1291.14L716.303 1261.55L636.37 1231.12L716.301 1200.69L636.37 1170.27L716.301 1139.84L636.37 1109.42L716.301 1078.99L636.37 1048.57L716.301 1018.15L636.37 987.729L716.301 957.305L636.37 926.882L716.301 896.461L636.37 866.04L718.499 834.782L719.135 836.454L641.402 866.04L721.333 896.461L641.402 926.882L721.333 957.305L641.402 987.729L721.333 1018.15L641.402 1048.57L721.333 1078.99L641.402 1109.42L721.333 1139.84L641.402 1170.27L721.333 1200.69L641.402 1231.12L721.331 1261.55L639.204 1292.82Z" fill="#E8F1F7"/>
<path d="M720.834 45.4583L720.196 43.7865L797.933 14.1906L718 -16.24L797.931 -46.6658L718 -77.094L797.931 -107.52L718 -137.946L797.931 -168.367L718 -198.79L797.931 -229.206L718 -259.632L797.931 -290.053L718 -320.477L797.931 -350.9L718 -381.321L800.126 -412.579L800.765 -410.905L723.03 -381.321L802.961 -350.9L723.03 -320.477L802.961 -290.053L723.03 -259.632L802.961 -229.206L723.03 -198.79L802.961 -168.367L723.03 -137.946L802.961 -107.52L723.03 -77.094L802.961 -46.6658L723.03 -16.24L802.961 14.1906L720.834 45.4583Z" fill="#E8F1F7"/>
<path d="M800.766 15.0374L800.127 13.3632L877.862 -16.2303L797.932 -46.6609L877.862 -77.0891L797.932 -107.515L877.862 -137.943L797.932 -168.366L877.862 -198.79L797.932 -229.211L877.862 -259.63L797.932 -290.053L877.862 -320.476L797.932 -350.9L877.862 -381.321L797.932 -411.742L880.058 -443L880.694 -441.328L802.962 -411.742L882.892 -381.321L802.962 -350.9L882.892 -320.476L802.962 -290.053L882.892 -259.63L802.962 -229.211L882.892 -198.79L802.962 -168.366L882.892 -137.943L802.962 -107.515L882.892 -77.0891L802.962 -46.6609L882.89 -16.2303L800.766 15.0374Z" fill="#E8F1F7"/>
<path d="M880.693 45.4583L880.057 43.7865L957.792 14.1906L877.861 -16.24L957.79 -46.6658L877.861 -77.094L957.79 -107.52L877.861 -137.946L957.79 -168.367L877.861 -198.79L957.79 -229.206L877.861 -259.632L957.79 -290.053L877.861 -320.477L957.79 -350.9L877.861 -381.321L959.985 -412.579L960.624 -410.905L882.891 -381.321L962.82 -350.9L882.891 -320.477L962.82 -290.053L882.891 -259.632L962.82 -229.206L882.891 -198.79L962.82 -168.367L882.891 -137.946L962.82 -107.52L882.891 -77.094L962.82 -46.6658L882.891 -16.24L962.82 14.1906L880.693 45.4583Z" fill="#E8F1F7"/>
<path d="M960.624 15.0374L959.986 13.3632L1037.72 -16.2303L957.79 -46.6609L1037.72 -77.0891L957.79 -107.515L1037.72 -137.943L957.79 -168.366L1037.72 -198.79L957.79 -229.211L1037.72 -259.63L957.79 -290.053L1037.72 -320.476L957.79 -350.9L1037.72 -381.321L957.79 -411.742L1039.92 -443L1040.56 -441.328L962.82 -411.742L1042.75 -381.321L962.82 -350.9L1042.75 -320.476L962.82 -290.053L1042.75 -259.63L962.82 -229.211L1042.75 -198.79L962.82 -168.366L1042.75 -137.943L962.82 -107.515L1042.75 -77.0891L962.82 -46.6609L1042.75 -16.2303L960.624 15.0374Z" fill="#E8F1F7"/>
<path d="M1040.55 45.4583L1039.92 43.7865L1117.65 14.1906L1037.72 -16.24L1117.65 -46.6658L1037.72 -77.094L1117.65 -107.52L1037.72 -137.946L1117.65 -168.367L1037.72 -198.79L1117.65 -229.206L1037.72 -259.632L1117.65 -290.053L1037.72 -320.477L1117.65 -350.9L1037.72 -381.321L1119.85 -412.579L1120.49 -410.905L1042.75 -381.321L1122.68 -350.9L1042.75 -320.477L1122.68 -290.053L1042.75 -259.632L1122.68 -229.206L1042.75 -198.79L1122.68 -168.367L1042.75 -137.946L1122.68 -107.52L1042.75 -77.094L1122.68 -46.6658L1042.75 -16.24L1122.68 14.1906L1040.55 45.4583Z" fill="#E8F1F7"/>
<path d="M1120.49 15.0374L1119.85 13.3632L1197.58 -16.2303L1117.65 -46.6609L1197.58 -77.0891L1117.65 -107.515L1197.58 -137.943L1117.65 -168.366L1197.58 -198.79L1117.65 -229.211L1197.58 -259.63L1117.65 -290.053L1197.58 -320.476L1117.65 -350.9L1197.58 -381.321L1117.65 -411.742L1199.78 -443L1200.41 -441.328L1122.68 -411.742L1202.61 -381.321L1122.68 -350.9L1202.61 -320.476L1122.68 -290.053L1202.61 -259.63L1122.68 -229.211L1202.61 -198.79L1122.68 -168.366L1202.61 -137.943L1122.68 -107.515L1202.61 -77.0891L1122.68 -46.6609L1202.61 -16.2303L1120.49 15.0374Z" fill="#E8F1F7"/>
<path d="M1200.41 45.4583L1199.78 43.7865L1277.51 14.1906L1197.58 -16.24L1277.51 -46.6658L1197.58 -77.094L1277.51 -107.52L1197.58 -137.946L1277.51 -168.367L1197.58 -198.79L1277.51 -229.206L1197.58 -259.632L1277.51 -290.053L1197.58 -320.477L1277.51 -350.9L1197.58 -381.321L1279.71 -412.579L1280.35 -410.905L1202.61 -381.321L1282.54 -350.9L1202.61 -320.477L1282.54 -290.053L1202.61 -259.632L1282.54 -229.206L1202.61 -198.79L1282.54 -168.367L1202.61 -137.946L1282.54 -107.52L1202.61 -77.094L1282.54 -46.6658L1202.61 -16.24L1282.54 14.1906L1200.41 45.4583Z" fill="#E8F1F7"/>
<path d="M1280.34 15.0374L1279.71 13.3632L1357.44 -16.2303L1277.51 -46.6609L1357.44 -77.0891L1277.51 -107.515L1357.44 -137.943L1277.51 -168.366L1357.44 -198.79L1277.51 -229.211L1357.44 -259.63L1277.51 -290.053L1357.44 -320.476L1277.51 -350.9L1357.44 -381.321L1277.51 -411.742L1359.64 -443L1360.28 -441.328L1282.54 -411.742L1362.47 -381.321L1282.54 -350.9L1362.47 -320.476L1282.54 -290.053L1362.47 -259.63L1282.54 -229.211L1362.47 -198.79L1282.54 -168.366L1362.47 -137.943L1282.54 -107.515L1362.47 -77.0891L1282.54 -46.6609L1362.47 -16.2303L1280.34 15.0374Z" fill="#E8F1F7"/>
<path d="M1360.28 45.4583L1359.64 43.7865L1437.37 14.1906L1357.44 -16.24L1437.37 -46.6658L1357.44 -77.094L1437.37 -107.52L1357.44 -137.946L1437.37 -168.367L1357.44 -198.79L1437.37 -229.206L1357.44 -259.632L1437.37 -290.053L1357.44 -320.477L1437.37 -350.9L1357.44 -381.321L1439.57 -412.579L1440.21 -410.905L1362.47 -381.321L1442.4 -350.9L1362.47 -320.477L1442.4 -290.053L1362.47 -259.632L1442.4 -229.206L1362.47 -198.79L1442.4 -168.367L1362.47 -137.946L1442.4 -107.52L1362.47 -77.094L1442.4 -46.6658L1362.47 -16.24L1442.4 14.1906L1360.28 45.4583Z" fill="#E8F1F7"/>
<path d="M1440.2 15.0374L1439.57 13.3632L1517.3 -16.2303L1437.37 -46.6609L1517.3 -77.0891L1437.37 -107.515L1517.3 -137.943L1437.37 -168.366L1517.3 -198.79L1437.37 -229.211L1517.3 -259.63L1437.37 -290.053L1517.3 -320.476L1437.37 -350.9L1517.3 -381.321L1437.37 -411.742L1519.5 -443L1520.14 -441.328L1442.4 -411.742L1522.33 -381.321L1442.4 -350.9L1522.33 -320.476L1442.4 -290.053L1522.33 -259.63L1442.4 -229.211L1522.33 -198.79L1442.4 -168.366L1522.33 -137.943L1442.4 -107.515L1522.33 -77.0891L1442.4 -46.6609L1522.33 -16.2303L1440.2 15.0374Z" fill="#E8F1F7"/>
<path d="M720.834 897.313L720.196 895.641L797.933 866.046L718 835.615L797.931 805.189L718 774.761L797.931 744.335L718 713.909L797.931 683.488L718 653.065L797.931 622.649L718 592.223L797.931 561.802L718 531.378L797.931 500.955L718 470.534L800.126 439.276L800.765 440.95L723.03 470.534L802.961 500.955L723.03 531.378L802.961 561.802L723.03 592.223L802.961 622.649L723.03 653.065L802.961 683.488L723.03 713.909L802.961 744.335L723.03 774.761L802.961 805.189L723.03 835.615L802.961 866.046L720.834 897.313Z" fill="#E8F1F7"/>
<path d="M800.766 866.892L800.127 865.218L877.862 835.624L797.932 805.194L877.862 774.765L797.932 744.34L877.862 713.911L797.932 683.488L877.862 653.065L797.932 622.644L877.862 592.225L797.932 561.802L877.862 531.378L797.932 500.955L877.862 470.534L797.932 440.113L880.058 408.854L880.694 410.526L802.962 440.113L882.892 470.534L802.962 500.955L882.892 531.378L802.962 561.802L882.892 592.225L802.962 622.644L882.892 653.065L802.962 683.488L882.892 713.911L802.962 744.34L882.892 774.765L802.962 805.194L882.89 835.624L800.766 866.892Z" fill="#E8F1F7"/>
<path d="M880.693 897.313L880.057 895.641L957.792 866.046L877.861 835.615L957.79 805.189L877.861 774.761L957.79 744.335L877.861 713.909L957.79 683.488L877.861 653.065L957.79 622.649L877.861 592.223L957.79 561.802L877.861 531.378L957.79 500.955L877.861 470.534L959.985 439.276L960.624 440.95L882.891 470.534L962.82 500.955L882.891 531.378L962.82 561.802L882.891 592.223L962.82 622.649L882.891 653.065L962.82 683.488L882.891 713.909L962.82 744.335L882.891 774.761L962.82 805.189L882.891 835.615L962.82 866.046L880.693 897.313Z" fill="#E8F1F7"/>
<path d="M960.624 866.892L959.986 865.218L1037.72 835.624L957.79 805.194L1037.72 774.765L957.79 744.34L1037.72 713.911L957.79 683.488L1037.72 653.065L957.79 622.644L1037.72 592.225L957.79 561.802L1037.72 531.378L957.79 500.955L1037.72 470.534L957.79 440.113L1039.92 408.854L1040.56 410.526L962.82 440.113L1042.75 470.534L962.82 500.955L1042.75 531.378L962.82 561.802L1042.75 592.225L962.82 622.644L1042.75 653.065L962.82 683.488L1042.75 713.911L962.82 744.34L1042.75 774.765L962.82 805.194L1042.75 835.624L960.624 866.892Z" fill="#E8F1F7"/>
<path d="M1040.55 897.313L1039.92 895.641L1117.65 866.046L1037.72 835.615L1117.65 805.189L1037.72 774.761L1117.65 744.335L1037.72 713.909L1117.65 683.488L1037.72 653.065L1117.65 622.649L1037.72 592.223L1117.65 561.802L1037.72 531.378L1117.65 500.955L1037.72 470.534L1119.85 439.276L1120.49 440.95L1042.75 470.534L1122.68 500.955L1042.75 531.378L1122.68 561.802L1042.75 592.223L1122.68 622.649L1042.75 653.065L1122.68 683.488L1042.75 713.909L1122.68 744.335L1042.75 774.761L1122.68 805.189L1042.75 835.615L1122.68 866.046L1040.55 897.313Z" fill="#E8F1F7"/>
<path d="M1120.49 866.892L1119.85 865.218L1197.58 835.624L1117.65 805.194L1197.58 774.765L1117.65 744.34L1197.58 713.911L1117.65 683.488L1197.58 653.065L1117.65 622.644L1197.58 592.225L1117.65 561.802L1197.58 531.378L1117.65 500.955L1197.58 470.534L1117.65 440.113L1199.78 408.854L1200.41 410.526L1122.68 440.113L1202.61 470.534L1122.68 500.955L1202.61 531.378L1122.68 561.802L1202.61 592.225L1122.68 622.644L1202.61 653.065L1122.68 683.488L1202.61 713.911L1122.68 744.34L1202.61 774.765L1122.68 805.194L1202.61 835.624L1120.49 866.892Z" fill="#E8F1F7"/>
<path d="M1200.41 897.313L1199.78 895.641L1277.51 866.046L1197.58 835.615L1277.51 805.189L1197.58 774.761L1277.51 744.335L1197.58 713.909L1277.51 683.488L1197.58 653.065L1277.51 622.649L1197.58 592.223L1277.51 561.802L1197.58 531.378L1277.51 500.955L1197.58 470.534L1279.71 439.276L1280.35 440.95L1202.61 470.534L1282.54 500.955L1202.61 531.378L1282.54 561.802L1202.61 592.223L1282.54 622.649L1202.61 653.065L1282.54 683.488L1202.61 713.909L1282.54 744.335L1202.61 774.761L1282.54 805.189L1202.61 835.615L1282.54 866.046L1200.41 897.313Z" fill="#E8F1F7"/>
<path d="M1280.34 866.892L1279.71 865.218L1357.44 835.624L1277.51 805.194L1357.44 774.765L1277.51 744.34L1357.44 713.911L1277.51 683.488L1357.44 653.065L1277.51 622.644L1357.44 592.225L1277.51 561.802L1357.44 531.378L1277.51 500.955L1357.44 470.534L1277.51 440.113L1359.64 408.854L1360.28 410.526L1282.54 440.113L1362.47 470.534L1282.54 500.955L1362.47 531.378L1282.54 561.802L1362.47 592.225L1282.54 622.644L1362.47 653.065L1282.54 683.488L1362.47 713.911L1282.54 744.34L1362.47 774.765L1282.54 805.194L1362.47 835.624L1280.34 866.892Z" fill="#E8F1F7"/>
<path d="M1360.28 897.313L1359.64 895.641L1437.37 866.046L1357.44 835.615L1437.37 805.189L1357.44 774.761L1437.37 744.335L1357.44 713.909L1437.37 683.488L1357.44 653.065L1437.37 622.649L1357.44 592.223L1437.37 561.802L1357.44 531.378L1437.37 500.955L1357.44 470.534L1439.57 439.276L1440.21 440.95L1362.47 470.534L1442.4 500.955L1362.47 531.378L1442.4 561.802L1362.47 592.223L1442.4 622.649L1362.47 653.065L1442.4 683.488L1362.47 713.909L1442.4 744.335L1362.47 774.761L1442.4 805.189L1362.47 835.615L1442.4 866.046L1360.28 897.313Z" fill="#E8F1F7"/>
<path d="M1440.2 866.892L1439.57 865.218L1517.3 835.624L1437.37 805.194L1517.3 774.765L1437.37 744.34L1517.3 713.911L1437.37 683.488L1517.3 653.065L1437.37 622.644L1517.3 592.225L1437.37 561.802L1517.3 531.378L1437.37 500.955L1517.3 470.534L1437.37 440.113L1519.5 408.854L1520.14 410.526L1442.4 440.113L1522.33 470.534L1442.4 500.955L1522.33 531.378L1442.4 561.802L1522.33 592.225L1442.4 622.644L1522.33 653.065L1442.4 683.488L1522.33 713.911L1442.4 744.34L1522.33 774.765L1442.4 805.194L1522.33 835.624L1440.2 866.892Z" fill="#E8F1F7"/>
<path d="M720.834 471.386L720.196 469.714L797.933 440.118L718 409.688L797.931 379.262L718 348.833L797.931 318.408L718 287.982L797.931 257.561L718 227.137L797.931 196.721L718 166.295L797.931 135.874L718 105.451L797.931 75.0276L718 44.6065L800.126 13.3484L800.765 15.0226L723.03 44.6065L802.961 75.0276L723.03 105.451L802.961 135.874L723.03 166.295L802.961 196.721L723.03 227.137L802.961 257.561L723.03 287.982L802.961 318.408L723.03 348.833L802.961 379.262L723.03 409.688L802.961 440.118L720.834 471.386Z" fill="#E8F1F7"/>
<path d="M800.766 440.965L800.127 439.29L877.862 409.697L797.932 379.266L877.862 348.838L797.932 318.412L877.862 287.984L797.932 257.561L877.862 227.137L797.932 196.716L877.862 166.298L797.932 135.874L877.862 105.451L797.932 75.0274L877.862 44.6064L797.932 14.1854L880.058 -17.0728L880.694 -15.4009L802.962 14.1854L882.892 44.6064L802.962 75.0274L882.892 105.451L802.962 135.874L882.892 166.298L802.962 196.716L882.892 227.137L802.962 257.561L882.892 287.984L802.962 318.412L882.892 348.838L802.962 379.266L882.89 409.697L800.766 440.965Z" fill="#E8F1F7"/>
<path d="M880.693 471.386L880.057 469.714L957.792 440.118L877.861 409.688L957.79 379.262L877.861 348.833L957.79 318.408L877.861 287.982L957.79 257.561L877.861 227.137L957.79 196.721L877.861 166.295L957.79 135.874L877.861 105.451L957.79 75.0276L877.861 44.6065L959.985 13.3484L960.624 15.0226L882.891 44.6065L962.82 75.0276L882.891 105.451L962.82 135.874L882.891 166.295L962.82 196.721L882.891 227.137L962.82 257.561L882.891 287.982L962.82 318.408L882.891 348.833L962.82 379.262L882.891 409.688L962.82 440.118L880.693 471.386Z" fill="#E8F1F7"/>
<path d="M960.624 440.965L959.986 439.29L1037.72 409.697L957.79 379.266L1037.72 348.838L957.79 318.412L1037.72 287.984L957.79 257.561L1037.72 227.137L957.79 196.716L1037.72 166.298L957.79 135.874L1037.72 105.451L957.79 75.0274L1037.72 44.6064L957.79 14.1854L1039.92 -17.0728L1040.56 -15.4009L962.82 14.1854L1042.75 44.6064L962.82 75.0274L1042.75 105.451L962.82 135.874L1042.75 166.298L962.82 196.716L1042.75 227.137L962.82 257.561L1042.75 287.984L962.82 318.412L1042.75 348.838L962.82 379.266L1042.75 409.697L960.624 440.965Z" fill="#E8F1F7"/>
<path d="M1040.55 471.386L1039.92 469.714L1117.65 440.118L1037.72 409.688L1117.65 379.262L1037.72 348.833L1117.65 318.408L1037.72 287.982L1117.65 257.561L1037.72 227.137L1117.65 196.721L1037.72 166.295L1117.65 135.874L1037.72 105.451L1117.65 75.0276L1037.72 44.6065L1119.85 13.3484L1120.49 15.0226L1042.75 44.6065L1122.68 75.0276L1042.75 105.451L1122.68 135.874L1042.75 166.295L1122.68 196.721L1042.75 227.137L1122.68 257.561L1042.75 287.982L1122.68 318.408L1042.75 348.833L1122.68 379.262L1042.75 409.688L1122.68 440.118L1040.55 471.386Z" fill="#E8F1F7"/>
<path d="M1120.49 440.965L1119.85 439.29L1197.58 409.697L1117.65 379.266L1197.58 348.838L1117.65 318.412L1197.58 287.984L1117.65 257.561L1197.58 227.137L1117.65 196.716L1197.58 166.298L1117.65 135.874L1197.58 105.451L1117.65 75.0274L1197.58 44.6064L1117.65 14.1854L1199.78 -17.0728L1200.41 -15.4009L1122.68 14.1854L1202.61 44.6064L1122.68 75.0274L1202.61 105.451L1122.68 135.874L1202.61 166.298L1122.68 196.716L1202.61 227.137L1122.68 257.561L1202.61 287.984L1122.68 318.412L1202.61 348.838L1122.68 379.266L1202.61 409.697L1120.49 440.965Z" fill="#E8F1F7"/>
<path d="M1200.41 471.386L1199.78 469.714L1277.51 440.118L1197.58 409.688L1277.51 379.262L1197.58 348.833L1277.51 318.408L1197.58 287.982L1277.51 257.561L1197.58 227.137L1277.51 196.721L1197.58 166.295L1277.51 135.874L1197.58 105.451L1277.51 75.0276L1197.58 44.6065L1279.71 13.3484L1280.35 15.0226L1202.61 44.6065L1282.54 75.0276L1202.61 105.451L1282.54 135.874L1202.61 166.295L1282.54 196.721L1202.61 227.137L1282.54 257.561L1202.61 287.982L1282.54 318.408L1202.61 348.833L1282.54 379.262L1202.61 409.688L1282.54 440.118L1200.41 471.386Z" fill="#E8F1F7"/>
<path d="M1280.34 440.965L1279.71 439.29L1357.44 409.697L1277.51 379.266L1357.44 348.838L1277.51 318.412L1357.44 287.984L1277.51 257.561L1357.44 227.137L1277.51 196.716L1357.44 166.298L1277.51 135.874L1357.44 105.451L1277.51 75.0274L1357.44 44.6064L1277.51 14.1854L1359.64 -17.0728L1360.28 -15.4009L1282.54 14.1854L1362.47 44.6064L1282.54 75.0274L1362.47 105.451L1282.54 135.874L1362.47 166.298L1282.54 196.716L1362.47 227.137L1282.54 257.561L1362.47 287.984L1282.54 318.412L1362.47 348.838L1282.54 379.266L1362.47 409.697L1280.34 440.965Z" fill="#E8F1F7"/>
<path d="M1360.28 471.386L1359.64 469.714L1437.37 440.118L1357.44 409.688L1437.37 379.262L1357.44 348.833L1437.37 318.408L1357.44 287.982L1437.37 257.561L1357.44 227.137L1437.37 196.721L1357.44 166.295L1437.37 135.874L1357.44 105.451L1437.37 75.0276L1357.44 44.6065L1439.57 13.3484L1440.21 15.0226L1362.47 44.6065L1442.4 75.0276L1362.47 105.451L1442.4 135.874L1362.47 166.295L1442.4 196.721L1362.47 227.137L1442.4 257.561L1362.47 287.982L1442.4 318.408L1362.47 348.833L1442.4 379.262L1362.47 409.688L1442.4 440.118L1360.28 471.386Z" fill="#E8F1F7"/>
<path d="M1440.2 440.965L1439.57 439.29L1517.3 409.697L1437.37 379.266L1517.3 348.838L1437.37 318.412L1517.3 287.984L1437.37 257.561L1517.3 227.137L1437.37 196.716L1517.3 166.298L1437.37 135.874L1517.3 105.451L1437.37 75.0274L1517.3 44.6064L1437.37 14.1854L1519.5 -17.0728L1520.14 -15.4009L1442.4 14.1854L1522.33 44.6064L1442.4 75.0274L1522.33 105.451L1442.4 135.874L1522.33 166.298L1442.4 196.716L1522.33 227.137L1442.4 257.561L1522.33 287.984L1442.4 318.412L1522.33 348.838L1442.4 379.266L1522.33 409.697L1440.2 440.965Z" fill="#E8F1F7"/>
<path d="M720.834 1323.24L720.196 1321.57L797.933 1291.97L718 1261.54L797.931 1231.12L718 1200.69L797.931 1170.26L718 1139.84L797.931 1109.42L718 1078.99L797.931 1048.58L718 1018.15L797.931 987.729L718 957.306L797.931 926.882L718 896.461L800.126 865.203L800.765 866.877L723.03 896.461L802.961 926.882L723.03 957.306L802.961 987.729L723.03 1018.15L802.961 1048.58L723.03 1078.99L802.961 1109.42L723.03 1139.84L802.961 1170.26L723.03 1200.69L802.961 1231.12L723.03 1261.54L802.961 1291.97L720.834 1323.24Z" fill="#E8F1F7"/>
<path d="M800.766 1292.82L800.127 1291.14L877.862 1261.55L797.932 1231.12L877.862 1200.69L797.932 1170.27L877.862 1139.84L797.932 1109.42L877.862 1078.99L797.932 1048.57L877.862 1018.15L797.932 987.729L877.862 957.305L797.932 926.882L877.862 896.461L797.932 866.04L880.058 834.782L880.694 836.454L802.962 866.04L882.892 896.461L802.962 926.882L882.892 957.305L802.962 987.729L882.892 1018.15L802.962 1048.57L882.892 1078.99L802.962 1109.42L882.892 1139.84L802.962 1170.27L882.892 1200.69L802.962 1231.12L882.89 1261.55L800.766 1292.82Z" fill="#E8F1F7"/>
<path d="M880.693 1323.24L880.057 1321.57L957.792 1291.97L877.861 1261.54L957.79 1231.12L877.861 1200.69L957.79 1170.26L877.861 1139.84L957.79 1109.42L877.861 1078.99L957.79 1048.58L877.861 1018.15L957.79 987.729L877.861 957.306L957.79 926.882L877.861 896.461L959.985 865.203L960.624 866.877L882.891 896.461L962.82 926.882L882.891 957.306L962.82 987.729L882.891 1018.15L962.82 1048.58L882.891 1078.99L962.82 1109.42L882.891 1139.84L962.82 1170.26L882.891 1200.69L962.82 1231.12L882.891 1261.54L962.82 1291.97L880.693 1323.24Z" fill="#E8F1F7"/>
<path d="M960.624 1292.82L959.986 1291.14L1037.72 1261.55L957.79 1231.12L1037.72 1200.69L957.79 1170.27L1037.72 1139.84L957.79 1109.42L1037.72 1078.99L957.79 1048.57L1037.72 1018.15L957.79 987.729L1037.72 957.305L957.79 926.882L1037.72 896.461L957.79 866.04L1039.92 834.782L1040.56 836.454L962.82 866.04L1042.75 896.461L962.82 926.882L1042.75 957.305L962.82 987.729L1042.75 1018.15L962.82 1048.57L1042.75 1078.99L962.82 1109.42L1042.75 1139.84L962.82 1170.27L1042.75 1200.69L962.82 1231.12L1042.75 1261.55L960.624 1292.82Z" fill="#E8F1F7"/>
<path d="M1040.55 1323.24L1039.92 1321.57L1117.65 1291.97L1037.72 1261.54L1117.65 1231.12L1037.72 1200.69L1117.65 1170.26L1037.72 1139.84L1117.65 1109.42L1037.72 1078.99L1117.65 1048.58L1037.72 1018.15L1117.65 987.729L1037.72 957.306L1117.65 926.882L1037.72 896.461L1119.85 865.203L1120.49 866.877L1042.75 896.461L1122.68 926.882L1042.75 957.306L1122.68 987.729L1042.75 1018.15L1122.68 1048.58L1042.75 1078.99L1122.68 1109.42L1042.75 1139.84L1122.68 1170.26L1042.75 1200.69L1122.68 1231.12L1042.75 1261.54L1122.68 1291.97L1040.55 1323.24Z" fill="#E8F1F7"/>
<path d="M1120.49 1292.82L1119.85 1291.14L1197.58 1261.55L1117.65 1231.12L1197.58 1200.69L1117.65 1170.27L1197.58 1139.84L1117.65 1109.42L1197.58 1078.99L1117.65 1048.57L1197.58 1018.15L1117.65 987.729L1197.58 957.305L1117.65 926.882L1197.58 896.461L1117.65 866.04L1199.78 834.782L1200.41 836.454L1122.68 866.04L1202.61 896.461L1122.68 926.882L1202.61 957.305L1122.68 987.729L1202.61 1018.15L1122.68 1048.57L1202.61 1078.99L1122.68 1109.42L1202.61 1139.84L1122.68 1170.27L1202.61 1200.69L1122.68 1231.12L1202.61 1261.55L1120.49 1292.82Z" fill="#E8F1F7"/>
<path d="M1200.41 1323.24L1199.78 1321.57L1277.51 1291.97L1197.58 1261.54L1277.51 1231.12L1197.58 1200.69L1277.51 1170.26L1197.58 1139.84L1277.51 1109.42L1197.58 1078.99L1277.51 1048.58L1197.58 1018.15L1277.51 987.729L1197.58 957.306L1277.51 926.882L1197.58 896.461L1279.71 865.203L1280.35 866.877L1202.61 896.461L1282.54 926.882L1202.61 957.306L1282.54 987.729L1202.61 1018.15L1282.54 1048.58L1202.61 1078.99L1282.54 1109.42L1202.61 1139.84L1282.54 1170.26L1202.61 1200.69L1282.54 1231.12L1202.61 1261.54L1282.54 1291.97L1200.41 1323.24Z" fill="#E8F1F7"/>
<path d="M1280.34 1292.82L1279.71 1291.14L1357.44 1261.55L1277.51 1231.12L1357.44 1200.69L1277.51 1170.27L1357.44 1139.84L1277.51 1109.42L1357.44 1078.99L1277.51 1048.57L1357.44 1018.15L1277.51 987.729L1357.44 957.305L1277.51 926.882L1357.44 896.461L1277.51 866.04L1359.64 834.782L1360.28 836.454L1282.54 866.04L1362.47 896.461L1282.54 926.882L1362.47 957.305L1282.54 987.729L1362.47 1018.15L1282.54 1048.57L1362.47 1078.99L1282.54 1109.42L1362.47 1139.84L1282.54 1170.27L1362.47 1200.69L1282.54 1231.12L1362.47 1261.55L1280.34 1292.82Z" fill="#E8F1F7"/>
<path d="M1360.28 1323.24L1359.64 1321.57L1437.37 1291.97L1357.44 1261.54L1437.37 1231.12L1357.44 1200.69L1437.37 1170.26L1357.44 1139.84L1437.37 1109.42L1357.44 1078.99L1437.37 1048.58L1357.44 1018.15L1437.37 987.729L1357.44 957.306L1437.37 926.882L1357.44 896.461L1439.57 865.203L1440.21 866.877L1362.47 896.461L1442.4 926.882L1362.47 957.306L1442.4 987.729L1362.47 1018.15L1442.4 1048.58L1362.47 1078.99L1442.4 1109.42L1362.47 1139.84L1442.4 1170.26L1362.47 1200.69L1442.4 1231.12L1362.47 1261.54L1442.4 1291.97L1360.28 1323.24Z" fill="#E8F1F7"/>
<path d="M1440.2 1292.82L1439.57 1291.14L1517.3 1261.55L1437.37 1231.12L1517.3 1200.69L1437.37 1170.27L1517.3 1139.84L1437.37 1109.42L1517.3 1078.99L1437.37 1048.57L1517.3 1018.15L1437.37 987.729L1517.3 957.305L1437.37 926.882L1517.3 896.461L1437.37 866.04L1519.5 834.782L1520.14 836.454L1442.4 866.04L1522.33 896.461L1442.4 926.882L1522.33 957.305L1442.4 987.729L1522.33 1018.15L1442.4 1048.57L1522.33 1078.99L1442.4 1109.42L1522.33 1139.84L1442.4 1170.27L1522.33 1200.69L1442.4 1231.12L1522.33 1261.55L1440.2 1292.82Z" fill="#E8F1F7"/>
<path d="M-80.1657 1749.46L-80.8043 1747.79L-3.06677 1718.19L-83 1687.76L-3.06917 1657.33L-83 1626.91L-3.06917 1596.48L-83 1566.05L-3.06917 1535.63L-83 1505.21L-3.06917 1474.79L-83 1444.37L-3.06917 1413.95L-83 1383.52L-3.06917 1353.1L-83 1322.68L-0.87352 1291.42L-0.234909 1293.1L-77.9701 1322.68L1.96074 1353.1L-77.9701 1383.52L1.96074 1413.95L-77.9701 1444.37L1.96074 1474.79L-77.9701 1505.21L1.96074 1535.63L-77.9701 1566.05L1.96074 1596.48L-77.9701 1626.91L1.96074 1657.33L-77.9701 1687.76L1.96074 1718.19L-80.1657 1749.46Z" fill="#E8F1F7"/>
<path d="M-0.234101 1719.04L-0.872709 1717.36L76.8625 1687.77L-3.06836 1657.34L76.8625 1626.91L-3.06836 1596.49L76.8625 1566.06L-3.06836 1535.63L76.8625 1505.21L-3.06836 1474.79L76.8625 1444.37L-3.06836 1413.95L76.8625 1383.52L-3.06836 1353.1L76.8625 1322.68L-3.06836 1292.26L79.0581 1261L79.6943 1262.67L1.96155 1292.26L81.8924 1322.68L1.96155 1353.1L81.8924 1383.52L1.96155 1413.95L81.8924 1444.37L1.96155 1474.79L81.8924 1505.21L1.96155 1535.63L81.8924 1566.06L1.96155 1596.49L81.8924 1626.91L1.96155 1657.34L81.89 1687.77L-0.234101 1719.04Z" fill="#E8F1F7"/>
<path d="M79.6932 1749.46L79.057 1747.79L156.792 1718.19L76.8613 1687.76L156.79 1657.33L76.8613 1626.91L156.79 1596.48L76.8613 1566.05L156.79 1535.63L76.8613 1505.21L156.79 1474.79L76.8613 1444.37L156.79 1413.95L76.8613 1383.52L156.79 1353.1L76.8613 1322.68L158.985 1291.42L159.624 1293.1L81.8912 1322.68L161.82 1353.1L81.8912 1383.52L161.82 1413.95L81.8912 1444.37L161.82 1474.79L81.8912 1505.21L161.82 1535.63L81.8912 1566.05L161.82 1596.48L81.8912 1626.91L161.82 1657.33L81.8912 1687.76L161.82 1718.19L79.6932 1749.46Z" fill="#E8F1F7"/>
<path d="M159.624 1719.04L158.986 1717.36L236.723 1687.77L156.79 1657.34L236.721 1626.91L156.79 1596.49L236.721 1566.06L156.79 1535.63L236.721 1505.21L156.79 1474.79L236.721 1444.37L156.79 1413.95L236.721 1383.52L156.79 1353.1L236.721 1322.68L156.79 1292.26L238.919 1261L239.555 1262.67L161.82 1292.26L241.751 1322.68L161.82 1353.1L241.751 1383.52L161.82 1413.95L241.751 1444.37L161.82 1474.79L241.751 1505.21L161.82 1535.63L241.751 1566.06L161.82 1596.49L241.751 1626.91L161.82 1657.34L241.751 1687.77L159.624 1719.04Z" fill="#E8F1F7"/>
<path d="M239.555 1749.46L238.919 1747.79L316.652 1718.19L236.721 1687.76L316.652 1657.33L236.721 1626.91L316.652 1596.48L236.721 1566.05L316.652 1535.63L236.721 1505.21L316.652 1474.79L236.721 1444.37L316.652 1413.95L236.721 1383.52L316.652 1353.1L236.721 1322.68L318.847 1291.42L319.486 1293.1L241.751 1322.68L321.681 1353.1L241.751 1383.52L321.681 1413.95L241.751 1444.37L321.681 1474.79L241.751 1505.21L321.681 1535.63L241.751 1566.05L321.681 1596.48L241.751 1626.91L321.681 1657.33L241.751 1687.76L321.679 1718.19L239.555 1749.46Z" fill="#E8F1F7"/>
<path d="M319.486 1719.04L318.847 1717.36L396.582 1687.77L316.651 1657.34L396.58 1626.91L316.651 1596.49L396.58 1566.06L316.651 1535.63L396.58 1505.21L316.651 1474.79L396.58 1444.37L316.651 1413.95L396.58 1383.52L316.651 1353.1L396.58 1322.68L316.651 1292.26L398.778 1261L399.414 1262.67L321.681 1292.26L401.61 1322.68L321.681 1353.1L401.61 1383.52L321.681 1413.95L401.61 1444.37L321.681 1474.79L401.61 1505.21L321.681 1535.63L401.61 1566.06L321.681 1596.49L401.61 1626.91L321.681 1657.34L401.61 1687.77L319.486 1719.04Z" fill="#E8F1F7"/>
<path d="M399.414 1749.46L398.778 1747.79L476.513 1718.19L396.58 1687.76L476.511 1657.33L396.58 1626.91L476.511 1596.48L396.58 1566.05L476.511 1535.63L396.58 1505.21L476.511 1474.79L396.58 1444.37L476.511 1413.95L396.58 1383.52L476.511 1353.1L396.58 1322.68L478.709 1291.42L479.345 1293.1L401.61 1322.68L481.541 1353.1L401.61 1383.52L481.541 1413.95L401.61 1444.37L481.541 1474.79L401.61 1505.21L481.541 1535.63L401.61 1566.05L481.541 1596.48L401.61 1626.91L481.541 1657.33L401.61 1687.76L481.541 1718.19L399.414 1749.46Z" fill="#E8F1F7"/>
<path d="M479.345 1719.04L478.709 1717.36L556.442 1687.77L476.511 1657.34L556.442 1626.91L476.511 1596.49L556.442 1566.06L476.511 1535.63L556.442 1505.21L476.511 1474.79L556.442 1444.37L476.511 1413.95L556.442 1383.52L476.511 1353.1L556.442 1322.68L476.511 1292.26L558.637 1261L559.276 1262.67L481.541 1292.26L561.471 1322.68L481.541 1353.1L561.471 1383.52L481.541 1413.95L561.471 1444.37L481.541 1474.79L561.471 1505.21L481.541 1535.63L561.471 1566.06L481.541 1596.49L561.471 1626.91L481.541 1657.34L561.471 1687.77L479.345 1719.04Z" fill="#E8F1F7"/>
<path d="M559.277 1749.46L558.638 1747.79L636.373 1718.19L556.442 1687.76L636.371 1657.33L556.442 1626.91L636.371 1596.48L556.442 1566.05L636.371 1535.63L556.442 1505.21L636.371 1474.79L556.442 1444.37L636.371 1413.95L556.442 1383.52L636.371 1353.1L556.442 1322.68L638.569 1291.42L639.205 1293.1L561.472 1322.68L641.403 1353.1L561.472 1383.52L641.403 1413.95L561.472 1444.37L641.403 1474.79L561.472 1505.21L641.403 1535.63L561.472 1566.05L641.403 1596.48L561.472 1626.91L641.403 1657.33L561.472 1687.76L641.401 1718.19L559.277 1749.46Z" fill="#E8F1F7"/>
<path d="M639.204 1719.04L638.568 1717.36L716.303 1687.77L636.37 1657.34L716.301 1626.91L636.37 1596.49L716.301 1566.06L636.37 1535.63L716.301 1505.21L636.37 1474.79L716.301 1444.37L636.37 1413.95L716.301 1383.52L636.37 1353.1L716.301 1322.68L636.37 1292.26L718.499 1261L719.135 1262.67L641.402 1292.26L721.333 1322.68L641.402 1353.1L721.333 1383.52L641.402 1413.95L721.333 1444.37L641.402 1474.79L721.333 1505.21L641.402 1535.63L721.333 1566.06L641.402 1596.49L721.333 1626.91L641.402 1657.34L721.331 1687.77L639.204 1719.04Z" fill="#E8F1F7"/>
<path d="M-80.1657 2601.31L-80.8043 2599.64L-3.06677 2570.05L-83 2539.62L-3.06917 2509.19L-83 2478.76L-3.06917 2448.34L-83 2417.91L-3.06917 2387.49L-83 2357.06L-3.06917 2326.65L-83 2296.22L-3.06917 2265.8L-83 2235.38L-3.06917 2204.96L-83 2174.53L-0.87352 2143.28L-0.234909 2144.95L-77.9701 2174.53L1.96074 2204.96L-77.9701 2235.38L1.96074 2265.8L-77.9701 2296.22L1.96074 2326.65L-77.9701 2357.06L1.96074 2387.49L-77.9701 2417.91L1.96074 2448.34L-77.9701 2478.76L1.96074 2509.19L-77.9701 2539.62L1.96074 2570.05L-80.1657 2601.31Z" fill="#E8F1F7"/>
<path d="M-0.234101 2570.89L-0.872709 2569.22L76.8625 2539.62L-3.06836 2509.19L76.8625 2478.77L-3.06836 2448.34L76.8625 2417.91L-3.06836 2387.49L76.8625 2357.06L-3.06836 2326.64L76.8625 2296.22L-3.06836 2265.8L76.8625 2235.38L-3.06836 2204.95L76.8625 2174.53L-3.06836 2144.11L79.0581 2112.85L79.6943 2114.53L1.96155 2144.11L81.8924 2174.53L1.96155 2204.95L81.8924 2235.38L1.96155 2265.8L81.8924 2296.22L1.96155 2326.64L81.8924 2357.06L1.96155 2387.49L81.8924 2417.91L1.96155 2448.34L81.8924 2478.77L1.96155 2509.19L81.89 2539.62L-0.234101 2570.89Z" fill="#E8F1F7"/>
<path d="M79.6932 2601.31L79.057 2599.64L156.792 2570.05L76.8613 2539.62L156.79 2509.19L76.8613 2478.76L156.79 2448.34L76.8613 2417.91L156.79 2387.49L76.8613 2357.06L156.79 2326.65L76.8613 2296.22L156.79 2265.8L76.8613 2235.38L156.79 2204.96L76.8613 2174.53L158.985 2143.28L159.624 2144.95L81.8912 2174.53L161.82 2204.96L81.8912 2235.38L161.82 2265.8L81.8912 2296.22L161.82 2326.65L81.8912 2357.06L161.82 2387.49L81.8912 2417.91L161.82 2448.34L81.8912 2478.76L161.82 2509.19L81.8912 2539.62L161.82 2570.05L79.6932 2601.31Z" fill="#E8F1F7"/>
<path d="M159.624 2570.89L158.986 2569.22L236.723 2539.62L156.79 2509.19L236.721 2478.77L156.79 2448.34L236.721 2417.91L156.79 2387.49L236.721 2357.06L156.79 2326.64L236.721 2296.22L156.79 2265.8L236.721 2235.38L156.79 2204.95L236.721 2174.53L156.79 2144.11L238.919 2112.85L239.555 2114.53L161.82 2144.11L241.751 2174.53L161.82 2204.95L241.751 2235.38L161.82 2265.8L241.751 2296.22L161.82 2326.64L241.751 2357.06L161.82 2387.49L241.751 2417.91L161.82 2448.34L241.751 2478.77L161.82 2509.19L241.751 2539.62L159.624 2570.89Z" fill="#E8F1F7"/>
<path d="M239.555 2601.31L238.919 2599.64L316.652 2570.05L236.721 2539.62L316.652 2509.19L236.721 2478.76L316.652 2448.34L236.721 2417.91L316.652 2387.49L236.721 2357.06L316.652 2326.65L236.721 2296.22L316.652 2265.8L236.721 2235.38L316.652 2204.96L236.721 2174.53L318.847 2143.28L319.486 2144.95L241.751 2174.53L321.681 2204.96L241.751 2235.38L321.681 2265.8L241.751 2296.22L321.681 2326.65L241.751 2357.06L321.681 2387.49L241.751 2417.91L321.681 2448.34L241.751 2478.76L321.681 2509.19L241.751 2539.62L321.679 2570.05L239.555 2601.31Z" fill="#E8F1F7"/>
<path d="M319.486 2570.89L318.847 2569.22L396.582 2539.62L316.651 2509.19L396.58 2478.77L316.651 2448.34L396.58 2417.91L316.651 2387.49L396.58 2357.06L316.651 2326.64L396.58 2296.22L316.651 2265.8L396.58 2235.38L316.651 2204.95L396.58 2174.53L316.651 2144.11L398.778 2112.85L399.414 2114.53L321.681 2144.11L401.61 2174.53L321.681 2204.95L401.61 2235.38L321.681 2265.8L401.61 2296.22L321.681 2326.64L401.61 2357.06L321.681 2387.49L401.61 2417.91L321.681 2448.34L401.61 2478.77L321.681 2509.19L401.61 2539.62L319.486 2570.89Z" fill="#E8F1F7"/>
<path d="M399.414 2601.31L398.778 2599.64L476.513 2570.05L396.58 2539.62L476.511 2509.19L396.58 2478.76L476.511 2448.34L396.58 2417.91L476.511 2387.49L396.58 2357.06L476.511 2326.65L396.58 2296.22L476.511 2265.8L396.58 2235.38L476.511 2204.96L396.58 2174.53L478.709 2143.28L479.345 2144.95L401.61 2174.53L481.541 2204.96L401.61 2235.38L481.541 2265.8L401.61 2296.22L481.541 2326.65L401.61 2357.06L481.541 2387.49L401.61 2417.91L481.541 2448.34L401.61 2478.76L481.541 2509.19L401.61 2539.62L481.541 2570.05L399.414 2601.31Z" fill="#E8F1F7"/>
<path d="M479.345 2570.89L478.709 2569.22L556.442 2539.62L476.511 2509.19L556.442 2478.77L476.511 2448.34L556.442 2417.91L476.511 2387.49L556.442 2357.06L476.511 2326.64L556.442 2296.22L476.511 2265.8L556.442 2235.38L476.511 2204.95L556.442 2174.53L476.511 2144.11L558.637 2112.85L559.276 2114.53L481.541 2144.11L561.471 2174.53L481.541 2204.95L561.471 2235.38L481.541 2265.8L561.471 2296.22L481.541 2326.64L561.471 2357.06L481.541 2387.49L561.471 2417.91L481.541 2448.34L561.471 2478.77L481.541 2509.19L561.471 2539.62L479.345 2570.89Z" fill="#E8F1F7"/>
<path d="M559.277 2601.31L558.638 2599.64L636.373 2570.05L556.442 2539.62L636.371 2509.19L556.442 2478.76L636.371 2448.34L556.442 2417.91L636.371 2387.49L556.442 2357.06L636.371 2326.65L556.442 2296.22L636.371 2265.8L556.442 2235.38L636.371 2204.96L556.442 2174.53L638.569 2143.28L639.205 2144.95L561.472 2174.53L641.403 2204.96L561.472 2235.38L641.403 2265.8L561.472 2296.22L641.403 2326.65L561.472 2357.06L641.403 2387.49L561.472 2417.91L641.403 2448.34L561.472 2478.76L641.403 2509.19L561.472 2539.62L641.401 2570.05L559.277 2601.31Z" fill="#E8F1F7"/>
<path d="M639.204 2570.89L638.568 2569.22L716.303 2539.62L636.37 2509.19L716.301 2478.77L636.37 2448.34L716.301 2417.91L636.37 2387.49L716.301 2357.06L636.37 2326.64L716.301 2296.22L636.37 2265.8L716.301 2235.38L636.37 2204.95L716.301 2174.53L636.37 2144.11L718.499 2112.85L719.135 2114.53L641.402 2144.11L721.333 2174.53L641.402 2204.95L721.333 2235.38L641.402 2265.8L721.333 2296.22L641.402 2326.64L721.333 2357.06L641.402 2387.49L721.333 2417.91L641.402 2448.34L721.333 2478.77L641.402 2509.19L721.331 2539.62L639.204 2570.89Z" fill="#E8F1F7"/>
<path d="M-80.1657 2175.39L-80.8043 2173.71L-3.06677 2144.12L-83 2113.69L-3.06917 2083.26L-83 2052.83L-3.06917 2022.41L-83 1991.98L-3.06917 1961.56L-83 1931.14L-3.06917 1900.72L-83 1870.3L-3.06917 1839.87L-83 1809.45L-3.06917 1779.03L-83 1748.61L-0.87352 1717.35L-0.234909 1719.02L-77.9701 1748.61L1.96074 1779.03L-77.9701 1809.45L1.96074 1839.87L-77.9701 1870.3L1.96074 1900.72L-77.9701 1931.14L1.96074 1961.56L-77.9701 1991.98L1.96074 2022.41L-77.9701 2052.83L1.96074 2083.26L-77.9701 2113.69L1.96074 2144.12L-80.1657 2175.39Z" fill="#E8F1F7"/>
<path d="M-0.234101 2144.96L-0.872709 2143.29L76.8625 2113.7L-3.06836 2083.27L76.8625 2052.84L-3.06836 2022.41L76.8625 1991.98L-3.06836 1961.56L76.8625 1931.14L-3.06836 1900.72L76.8625 1870.3L-3.06836 1839.87L76.8625 1809.45L-3.06836 1779.03L76.8625 1748.61L-3.06836 1718.19L79.0581 1686.93L79.6943 1688.6L1.96155 1718.19L81.8924 1748.61L1.96155 1779.03L81.8924 1809.45L1.96155 1839.87L81.8924 1870.3L1.96155 1900.72L81.8924 1931.14L1.96155 1961.56L81.8924 1991.98L1.96155 2022.41L81.8924 2052.84L1.96155 2083.27L81.89 2113.7L-0.234101 2144.96Z" fill="#E8F1F7"/>
<path d="M79.6932 2175.39L79.057 2173.71L156.792 2144.12L76.8613 2113.69L156.79 2083.26L76.8613 2052.83L156.79 2022.41L76.8613 1991.98L156.79 1961.56L76.8613 1931.14L156.79 1900.72L76.8613 1870.3L156.79 1839.87L76.8613 1809.45L156.79 1779.03L76.8613 1748.61L158.985 1717.35L159.624 1719.02L81.8912 1748.61L161.82 1779.03L81.8912 1809.45L161.82 1839.87L81.8912 1870.3L161.82 1900.72L81.8912 1931.14L161.82 1961.56L81.8912 1991.98L161.82 2022.41L81.8912 2052.83L161.82 2083.26L81.8912 2113.69L161.82 2144.12L79.6932 2175.39Z" fill="#E8F1F7"/>
<path d="M159.624 2144.96L158.986 2143.29L236.723 2113.7L156.79 2083.27L236.721 2052.84L156.79 2022.41L236.721 1991.98L156.79 1961.56L236.721 1931.14L156.79 1900.72L236.721 1870.3L156.79 1839.87L236.721 1809.45L156.79 1779.03L236.721 1748.61L156.79 1718.19L238.919 1686.93L239.555 1688.6L161.82 1718.19L241.751 1748.61L161.82 1779.03L241.751 1809.45L161.82 1839.87L241.751 1870.3L161.82 1900.72L241.751 1931.14L161.82 1961.56L241.751 1991.98L161.82 2022.41L241.751 2052.84L161.82 2083.27L241.751 2113.7L159.624 2144.96Z" fill="#E8F1F7"/>
<path d="M239.555 2175.39L238.919 2173.71L316.652 2144.12L236.721 2113.69L316.652 2083.26L236.721 2052.83L316.652 2022.41L236.721 1991.98L316.652 1961.56L236.721 1931.14L316.652 1900.72L236.721 1870.3L316.652 1839.87L236.721 1809.45L316.652 1779.03L236.721 1748.61L318.847 1717.35L319.486 1719.02L241.751 1748.61L321.681 1779.03L241.751 1809.45L321.681 1839.87L241.751 1870.3L321.681 1900.72L241.751 1931.14L321.681 1961.56L241.751 1991.98L321.681 2022.41L241.751 2052.83L321.681 2083.26L241.751 2113.69L321.679 2144.12L239.555 2175.39Z" fill="#E8F1F7"/>
<path d="M319.486 2144.96L318.847 2143.29L396.582 2113.7L316.651 2083.27L396.58 2052.84L316.651 2022.41L396.58 1991.98L316.651 1961.56L396.58 1931.14L316.651 1900.72L396.58 1870.3L316.651 1839.87L396.58 1809.45L316.651 1779.03L396.58 1748.61L316.651 1718.19L398.778 1686.93L399.414 1688.6L321.681 1718.19L401.61 1748.61L321.681 1779.03L401.61 1809.45L321.681 1839.87L401.61 1870.3L321.681 1900.72L401.61 1931.14L321.681 1961.56L401.61 1991.98L321.681 2022.41L401.61 2052.84L321.681 2083.27L401.61 2113.7L319.486 2144.96Z" fill="#E8F1F7"/>
<path d="M399.414 2175.39L398.778 2173.71L476.513 2144.12L396.58 2113.69L476.511 2083.26L396.58 2052.83L476.511 2022.41L396.58 1991.98L476.511 1961.56L396.58 1931.14L476.511 1900.72L396.58 1870.3L476.511 1839.87L396.58 1809.45L476.511 1779.03L396.58 1748.61L478.709 1717.35L479.345 1719.02L401.61 1748.61L481.541 1779.03L401.61 1809.45L481.541 1839.87L401.61 1870.3L481.541 1900.72L401.61 1931.14L481.541 1961.56L401.61 1991.98L481.541 2022.41L401.61 2052.83L481.541 2083.26L401.61 2113.69L481.541 2144.12L399.414 2175.39Z" fill="#E8F1F7"/>
<path d="M479.345 2144.96L478.709 2143.29L556.442 2113.7L476.511 2083.27L556.442 2052.84L476.511 2022.41L556.442 1991.98L476.511 1961.56L556.442 1931.14L476.511 1900.72L556.442 1870.3L476.511 1839.87L556.442 1809.45L476.511 1779.03L556.442 1748.61L476.511 1718.19L558.637 1686.93L559.276 1688.6L481.541 1718.19L561.471 1748.61L481.541 1779.03L561.471 1809.45L481.541 1839.87L561.471 1870.3L481.541 1900.72L561.471 1931.14L481.541 1961.56L561.471 1991.98L481.541 2022.41L561.471 2052.84L481.541 2083.27L561.471 2113.7L479.345 2144.96Z" fill="#E8F1F7"/>
<path d="M559.277 2175.39L558.638 2173.71L636.373 2144.12L556.442 2113.69L636.371 2083.26L556.442 2052.83L636.371 2022.41L556.442 1991.98L636.371 1961.56L556.442 1931.14L636.371 1900.72L556.442 1870.3L636.371 1839.87L556.442 1809.45L636.371 1779.03L556.442 1748.61L638.569 1717.35L639.205 1719.02L561.472 1748.61L641.403 1779.03L561.472 1809.45L641.403 1839.87L561.472 1870.3L641.403 1900.72L561.472 1931.14L641.403 1961.56L561.472 1991.98L641.403 2022.41L561.472 2052.83L641.403 2083.26L561.472 2113.69L641.401 2144.12L559.277 2175.39Z" fill="#E8F1F7"/>
<path d="M639.204 2144.96L638.568 2143.29L716.303 2113.7L636.37 2083.27L716.301 2052.84L636.37 2022.41L716.301 1991.98L636.37 1961.56L716.301 1931.14L636.37 1900.72L716.301 1870.3L636.37 1839.87L716.301 1809.45L636.37 1779.03L716.301 1748.61L636.37 1718.19L718.499 1686.93L719.135 1688.6L641.402 1718.19L721.333 1748.61L641.402 1779.03L721.333 1809.45L641.402 1839.87L721.333 1870.3L641.402 1900.72L721.333 1931.14L641.402 1961.56L721.333 1991.98L641.402 2022.41L721.333 2052.84L641.402 2083.27L721.331 2113.7L639.204 2144.96Z" fill="#E8F1F7"/>
<path d="M-80.1657 3027.24L-80.8043 3025.57L-3.06677 2995.97L-83 2965.54L-3.06917 2935.12L-83 2904.69L-3.06917 2874.26L-83 2843.84L-3.06917 2813.42L-83 2782.99L-3.06917 2752.58L-83 2722.15L-3.06917 2691.73L-83 2661.31L-3.06917 2630.88L-83 2600.46L-0.87352 2569.2L-0.234909 2570.88L-77.9701 2600.46L1.96074 2630.88L-77.9701 2661.31L1.96074 2691.73L-77.9701 2722.15L1.96074 2752.58L-77.9701 2782.99L1.96074 2813.42L-77.9701 2843.84L1.96074 2874.26L-77.9701 2904.69L1.96074 2935.12L-77.9701 2965.54L1.96074 2995.97L-80.1657 3027.24Z" fill="#E8F1F7"/>
<path d="M-0.234101 2996.82L-0.872709 2995.14L76.8625 2965.55L-3.06836 2935.12L76.8625 2904.69L-3.06836 2874.27L76.8625 2843.84L-3.06836 2813.42L76.8625 2782.99L-3.06836 2752.57L76.8625 2722.15L-3.06836 2691.73L76.8625 2661.31L-3.06836 2630.88L76.8625 2600.46L-3.06836 2570.04L79.0581 2538.78L79.6943 2540.45L1.96155 2570.04L81.8924 2600.46L1.96155 2630.88L81.8924 2661.31L1.96155 2691.73L81.8924 2722.15L1.96155 2752.57L81.8924 2782.99L1.96155 2813.42L81.8924 2843.84L1.96155 2874.27L81.8924 2904.69L1.96155 2935.12L81.89 2965.55L-0.234101 2996.82Z" fill="#E8F1F7"/>
<path d="M79.6932 3027.24L79.057 3025.57L156.792 2995.97L76.8613 2965.54L156.79 2935.12L76.8613 2904.69L156.79 2874.26L76.8613 2843.84L156.79 2813.42L76.8613 2782.99L156.79 2752.58L76.8613 2722.15L156.79 2691.73L76.8613 2661.31L156.79 2630.88L76.8613 2600.46L158.985 2569.2L159.624 2570.88L81.8912 2600.46L161.82 2630.88L81.8912 2661.31L161.82 2691.73L81.8912 2722.15L161.82 2752.58L81.8912 2782.99L161.82 2813.42L81.8912 2843.84L161.82 2874.26L81.8912 2904.69L161.82 2935.12L81.8912 2965.54L161.82 2995.97L79.6932 3027.24Z" fill="#E8F1F7"/>
<path d="M159.624 2996.82L158.986 2995.14L236.723 2965.55L156.79 2935.12L236.721 2904.69L156.79 2874.27L236.721 2843.84L156.79 2813.42L236.721 2782.99L156.79 2752.57L236.721 2722.15L156.79 2691.73L236.721 2661.31L156.79 2630.88L236.721 2600.46L156.79 2570.04L238.919 2538.78L239.555 2540.45L161.82 2570.04L241.751 2600.46L161.82 2630.88L241.751 2661.31L161.82 2691.73L241.751 2722.15L161.82 2752.57L241.751 2782.99L161.82 2813.42L241.751 2843.84L161.82 2874.27L241.751 2904.69L161.82 2935.12L241.751 2965.55L159.624 2996.82Z" fill="#E8F1F7"/>
<path d="M239.555 3027.24L238.919 3025.57L316.652 2995.97L236.721 2965.54L316.652 2935.12L236.721 2904.69L316.652 2874.26L236.721 2843.84L316.652 2813.42L236.721 2782.99L316.652 2752.58L236.721 2722.15L316.652 2691.73L236.721 2661.31L316.652 2630.88L236.721 2600.46L318.847 2569.2L319.486 2570.88L241.751 2600.46L321.681 2630.88L241.751 2661.31L321.681 2691.73L241.751 2722.15L321.681 2752.58L241.751 2782.99L321.681 2813.42L241.751 2843.84L321.681 2874.26L241.751 2904.69L321.681 2935.12L241.751 2965.54L321.679 2995.97L239.555 3027.24Z" fill="#E8F1F7"/>
<path d="M319.486 2996.82L318.847 2995.14L396.582 2965.55L316.651 2935.12L396.58 2904.69L316.651 2874.27L396.58 2843.84L316.651 2813.42L396.58 2782.99L316.651 2752.57L396.58 2722.15L316.651 2691.73L396.58 2661.31L316.651 2630.88L396.58 2600.46L316.651 2570.04L398.778 2538.78L399.414 2540.45L321.681 2570.04L401.61 2600.46L321.681 2630.88L401.61 2661.31L321.681 2691.73L401.61 2722.15L321.681 2752.57L401.61 2782.99L321.681 2813.42L401.61 2843.84L321.681 2874.27L401.61 2904.69L321.681 2935.12L401.61 2965.55L319.486 2996.82Z" fill="#E8F1F7"/>
<path d="M399.414 3027.24L398.778 3025.57L476.513 2995.97L396.58 2965.54L476.511 2935.12L396.58 2904.69L476.511 2874.26L396.58 2843.84L476.511 2813.42L396.58 2782.99L476.511 2752.58L396.58 2722.15L476.511 2691.73L396.58 2661.31L476.511 2630.88L396.58 2600.46L478.709 2569.2L479.345 2570.88L401.61 2600.46L481.541 2630.88L401.61 2661.31L481.541 2691.73L401.61 2722.15L481.541 2752.58L401.61 2782.99L481.541 2813.42L401.61 2843.84L481.541 2874.26L401.61 2904.69L481.541 2935.12L401.61 2965.54L481.541 2995.97L399.414 3027.24Z" fill="#E8F1F7"/>
<path d="M479.345 2996.82L478.709 2995.14L556.442 2965.55L476.511 2935.12L556.442 2904.69L476.511 2874.27L556.442 2843.84L476.511 2813.42L556.442 2782.99L476.511 2752.57L556.442 2722.15L476.511 2691.73L556.442 2661.31L476.511 2630.88L556.442 2600.46L476.511 2570.04L558.637 2538.78L559.276 2540.45L481.541 2570.04L561.471 2600.46L481.541 2630.88L561.471 2661.31L481.541 2691.73L561.471 2722.15L481.541 2752.57L561.471 2782.99L481.541 2813.42L561.471 2843.84L481.541 2874.27L561.471 2904.69L481.541 2935.12L561.471 2965.55L479.345 2996.82Z" fill="#E8F1F7"/>
<path d="M559.277 3027.24L558.638 3025.57L636.373 2995.97L556.442 2965.54L636.371 2935.12L556.442 2904.69L636.371 2874.26L556.442 2843.84L636.371 2813.42L556.442 2782.99L636.371 2752.58L556.442 2722.15L636.371 2691.73L556.442 2661.31L636.371 2630.88L556.442 2600.46L638.569 2569.2L639.205 2570.88L561.472 2600.46L641.403 2630.88L561.472 2661.31L641.403 2691.73L561.472 2722.15L641.403 2752.58L561.472 2782.99L641.403 2813.42L561.472 2843.84L641.403 2874.26L561.472 2904.69L641.403 2935.12L561.472 2965.54L641.401 2995.97L559.277 3027.24Z" fill="#E8F1F7"/>
<path d="M639.204 2996.82L638.568 2995.14L716.303 2965.55L636.37 2935.12L716.301 2904.69L636.37 2874.27L716.301 2843.84L636.37 2813.42L716.301 2782.99L636.37 2752.57L716.301 2722.15L636.37 2691.73L716.301 2661.31L636.37 2630.88L716.301 2600.46L636.37 2570.04L718.499 2538.78L719.135 2540.45L641.402 2570.04L721.333 2600.46L641.402 2630.88L721.333 2661.31L641.402 2691.73L721.333 2722.15L641.402 2752.57L721.333 2782.99L641.402 2813.42L721.333 2843.84L641.402 2874.27L721.333 2904.69L641.402 2935.12L721.331 2965.55L639.204 2996.82Z" fill="#E8F1F7"/>
<path d="M720.834 1749.46L720.196 1747.79L797.933 1718.19L718 1687.76L797.931 1657.33L718 1626.91L797.931 1596.48L718 1566.05L797.931 1535.63L718 1505.21L797.931 1474.79L718 1444.37L797.931 1413.95L718 1383.52L797.931 1353.1L718 1322.68L800.126 1291.42L800.765 1293.1L723.03 1322.68L802.961 1353.1L723.03 1383.52L802.961 1413.95L723.03 1444.37L802.961 1474.79L723.03 1505.21L802.961 1535.63L723.03 1566.05L802.961 1596.48L723.03 1626.91L802.961 1657.33L723.03 1687.76L802.961 1718.19L720.834 1749.46Z" fill="#E8F1F7"/>
<path d="M800.766 1719.04L800.127 1717.36L877.862 1687.77L797.932 1657.34L877.862 1626.91L797.932 1596.49L877.862 1566.06L797.932 1535.63L877.862 1505.21L797.932 1474.79L877.862 1444.37L797.932 1413.95L877.862 1383.52L797.932 1353.1L877.862 1322.68L797.932 1292.26L880.058 1261L880.694 1262.67L802.962 1292.26L882.892 1322.68L802.962 1353.1L882.892 1383.52L802.962 1413.95L882.892 1444.37L802.962 1474.79L882.892 1505.21L802.962 1535.63L882.892 1566.06L802.962 1596.49L882.892 1626.91L802.962 1657.34L882.89 1687.77L800.766 1719.04Z" fill="#E8F1F7"/>
<path d="M880.693 1749.46L880.057 1747.79L957.792 1718.19L877.861 1687.76L957.79 1657.33L877.861 1626.91L957.79 1596.48L877.861 1566.05L957.79 1535.63L877.861 1505.21L957.79 1474.79L877.861 1444.37L957.79 1413.95L877.861 1383.52L957.79 1353.1L877.861 1322.68L959.985 1291.42L960.624 1293.1L882.891 1322.68L962.82 1353.1L882.891 1383.52L962.82 1413.95L882.891 1444.37L962.82 1474.79L882.891 1505.21L962.82 1535.63L882.891 1566.05L962.82 1596.48L882.891 1626.91L962.82 1657.33L882.891 1687.76L962.82 1718.19L880.693 1749.46Z" fill="#E8F1F7"/>
<path d="M960.624 1719.04L959.986 1717.36L1037.72 1687.77L957.79 1657.34L1037.72 1626.91L957.79 1596.49L1037.72 1566.06L957.79 1535.63L1037.72 1505.21L957.79 1474.79L1037.72 1444.37L957.79 1413.95L1037.72 1383.52L957.79 1353.1L1037.72 1322.68L957.79 1292.26L1039.92 1261L1040.56 1262.67L962.82 1292.26L1042.75 1322.68L962.82 1353.1L1042.75 1383.52L962.82 1413.95L1042.75 1444.37L962.82 1474.79L1042.75 1505.21L962.82 1535.63L1042.75 1566.06L962.82 1596.49L1042.75 1626.91L962.82 1657.34L1042.75 1687.77L960.624 1719.04Z" fill="#E8F1F7"/>
<path d="M1040.55 1749.46L1039.92 1747.79L1117.65 1718.19L1037.72 1687.76L1117.65 1657.33L1037.72 1626.91L1117.65 1596.48L1037.72 1566.05L1117.65 1535.63L1037.72 1505.21L1117.65 1474.79L1037.72 1444.37L1117.65 1413.95L1037.72 1383.52L1117.65 1353.1L1037.72 1322.68L1119.85 1291.42L1120.49 1293.1L1042.75 1322.68L1122.68 1353.1L1042.75 1383.52L1122.68 1413.95L1042.75 1444.37L1122.68 1474.79L1042.75 1505.21L1122.68 1535.63L1042.75 1566.05L1122.68 1596.48L1042.75 1626.91L1122.68 1657.33L1042.75 1687.76L1122.68 1718.19L1040.55 1749.46Z" fill="#E8F1F7"/>
<path d="M1120.49 1719.04L1119.85 1717.36L1197.58 1687.77L1117.65 1657.34L1197.58 1626.91L1117.65 1596.49L1197.58 1566.06L1117.65 1535.63L1197.58 1505.21L1117.65 1474.79L1197.58 1444.37L1117.65 1413.95L1197.58 1383.52L1117.65 1353.1L1197.58 1322.68L1117.65 1292.26L1199.78 1261L1200.41 1262.67L1122.68 1292.26L1202.61 1322.68L1122.68 1353.1L1202.61 1383.52L1122.68 1413.95L1202.61 1444.37L1122.68 1474.79L1202.61 1505.21L1122.68 1535.63L1202.61 1566.06L1122.68 1596.49L1202.61 1626.91L1122.68 1657.34L1202.61 1687.77L1120.49 1719.04Z" fill="#E8F1F7"/>
<path d="M1200.41 1749.46L1199.78 1747.79L1277.51 1718.19L1197.58 1687.76L1277.51 1657.33L1197.58 1626.91L1277.51 1596.48L1197.58 1566.05L1277.51 1535.63L1197.58 1505.21L1277.51 1474.79L1197.58 1444.37L1277.51 1413.95L1197.58 1383.52L1277.51 1353.1L1197.58 1322.68L1279.71 1291.42L1280.35 1293.1L1202.61 1322.68L1282.54 1353.1L1202.61 1383.52L1282.54 1413.95L1202.61 1444.37L1282.54 1474.79L1202.61 1505.21L1282.54 1535.63L1202.61 1566.05L1282.54 1596.48L1202.61 1626.91L1282.54 1657.33L1202.61 1687.76L1282.54 1718.19L1200.41 1749.46Z" fill="#E8F1F7"/>
<path d="M1280.34 1719.04L1279.71 1717.36L1357.44 1687.77L1277.51 1657.34L1357.44 1626.91L1277.51 1596.49L1357.44 1566.06L1277.51 1535.63L1357.44 1505.21L1277.51 1474.79L1357.44 1444.37L1277.51 1413.95L1357.44 1383.52L1277.51 1353.1L1357.44 1322.68L1277.51 1292.26L1359.64 1261L1360.28 1262.67L1282.54 1292.26L1362.47 1322.68L1282.54 1353.1L1362.47 1383.52L1282.54 1413.95L1362.47 1444.37L1282.54 1474.79L1362.47 1505.21L1282.54 1535.63L1362.47 1566.06L1282.54 1596.49L1362.47 1626.91L1282.54 1657.34L1362.47 1687.77L1280.34 1719.04Z" fill="#E8F1F7"/>
<path d="M1360.28 1749.46L1359.64 1747.79L1437.37 1718.19L1357.44 1687.76L1437.37 1657.33L1357.44 1626.91L1437.37 1596.48L1357.44 1566.05L1437.37 1535.63L1357.44 1505.21L1437.37 1474.79L1357.44 1444.37L1437.37 1413.95L1357.44 1383.52L1437.37 1353.1L1357.44 1322.68L1439.57 1291.42L1440.21 1293.1L1362.47 1322.68L1442.4 1353.1L1362.47 1383.52L1442.4 1413.95L1362.47 1444.37L1442.4 1474.79L1362.47 1505.21L1442.4 1535.63L1362.47 1566.05L1442.4 1596.48L1362.47 1626.91L1442.4 1657.33L1362.47 1687.76L1442.4 1718.19L1360.28 1749.46Z" fill="#E8F1F7"/>
<path d="M1440.2 1719.04L1439.57 1717.36L1517.3 1687.77L1437.37 1657.34L1517.3 1626.91L1437.37 1596.49L1517.3 1566.06L1437.37 1535.63L1517.3 1505.21L1437.37 1474.79L1517.3 1444.37L1437.37 1413.95L1517.3 1383.52L1437.37 1353.1L1517.3 1322.68L1437.37 1292.26L1519.5 1261L1520.14 1262.67L1442.4 1292.26L1522.33 1322.68L1442.4 1353.1L1522.33 1383.52L1442.4 1413.95L1522.33 1444.37L1442.4 1474.79L1522.33 1505.21L1442.4 1535.63L1522.33 1566.06L1442.4 1596.49L1522.33 1626.91L1442.4 1657.34L1522.33 1687.77L1440.2 1719.04Z" fill="#E8F1F7"/>
<path d="M720.834 2601.31L720.196 2599.64L797.933 2570.05L718 2539.62L797.931 2509.19L718 2478.76L797.931 2448.34L718 2417.91L797.931 2387.49L718 2357.06L797.931 2326.65L718 2296.22L797.931 2265.8L718 2235.38L797.931 2204.96L718 2174.53L800.126 2143.28L800.765 2144.95L723.03 2174.53L802.961 2204.96L723.03 2235.38L802.961 2265.8L723.03 2296.22L802.961 2326.65L723.03 2357.06L802.961 2387.49L723.03 2417.91L802.961 2448.34L723.03 2478.76L802.961 2509.19L723.03 2539.62L802.961 2570.05L720.834 2601.31Z" fill="#E8F1F7"/>
<path d="M800.766 2570.89L800.127 2569.22L877.862 2539.62L797.932 2509.19L877.862 2478.77L797.932 2448.34L877.862 2417.91L797.932 2387.49L877.862 2357.06L797.932 2326.64L877.862 2296.22L797.932 2265.8L877.862 2235.38L797.932 2204.95L877.862 2174.53L797.932 2144.11L880.058 2112.85L880.694 2114.53L802.962 2144.11L882.892 2174.53L802.962 2204.95L882.892 2235.38L802.962 2265.8L882.892 2296.22L802.962 2326.64L882.892 2357.06L802.962 2387.49L882.892 2417.91L802.962 2448.34L882.892 2478.77L802.962 2509.19L882.89 2539.62L800.766 2570.89Z" fill="#E8F1F7"/>
<path d="M880.693 2601.31L880.057 2599.64L957.792 2570.05L877.861 2539.62L957.79 2509.19L877.861 2478.76L957.79 2448.34L877.861 2417.91L957.79 2387.49L877.861 2357.06L957.79 2326.65L877.861 2296.22L957.79 2265.8L877.861 2235.38L957.79 2204.96L877.861 2174.53L959.985 2143.28L960.624 2144.95L882.891 2174.53L962.82 2204.96L882.891 2235.38L962.82 2265.8L882.891 2296.22L962.82 2326.65L882.891 2357.06L962.82 2387.49L882.891 2417.91L962.82 2448.34L882.891 2478.76L962.82 2509.19L882.891 2539.62L962.82 2570.05L880.693 2601.31Z" fill="#E8F1F7"/>
<path d="M960.624 2570.89L959.986 2569.22L1037.72 2539.62L957.79 2509.19L1037.72 2478.77L957.79 2448.34L1037.72 2417.91L957.79 2387.49L1037.72 2357.06L957.79 2326.64L1037.72 2296.22L957.79 2265.8L1037.72 2235.38L957.79 2204.95L1037.72 2174.53L957.79 2144.11L1039.92 2112.85L1040.56 2114.53L962.82 2144.11L1042.75 2174.53L962.82 2204.95L1042.75 2235.38L962.82 2265.8L1042.75 2296.22L962.82 2326.64L1042.75 2357.06L962.82 2387.49L1042.75 2417.91L962.82 2448.34L1042.75 2478.77L962.82 2509.19L1042.75 2539.62L960.624 2570.89Z" fill="#E8F1F7"/>
<path d="M1040.55 2601.31L1039.92 2599.64L1117.65 2570.05L1037.72 2539.62L1117.65 2509.19L1037.72 2478.76L1117.65 2448.34L1037.72 2417.91L1117.65 2387.49L1037.72 2357.06L1117.65 2326.65L1037.72 2296.22L1117.65 2265.8L1037.72 2235.38L1117.65 2204.96L1037.72 2174.53L1119.85 2143.28L1120.49 2144.95L1042.75 2174.53L1122.68 2204.96L1042.75 2235.38L1122.68 2265.8L1042.75 2296.22L1122.68 2326.65L1042.75 2357.06L1122.68 2387.49L1042.75 2417.91L1122.68 2448.34L1042.75 2478.76L1122.68 2509.19L1042.75 2539.62L1122.68 2570.05L1040.55 2601.31Z" fill="#E8F1F7"/>
<path d="M1120.49 2570.89L1119.85 2569.22L1197.58 2539.62L1117.65 2509.19L1197.58 2478.77L1117.65 2448.34L1197.58 2417.91L1117.65 2387.49L1197.58 2357.06L1117.65 2326.64L1197.58 2296.22L1117.65 2265.8L1197.58 2235.38L1117.65 2204.95L1197.58 2174.53L1117.65 2144.11L1199.78 2112.85L1200.41 2114.53L1122.68 2144.11L1202.61 2174.53L1122.68 2204.95L1202.61 2235.38L1122.68 2265.8L1202.61 2296.22L1122.68 2326.64L1202.61 2357.06L1122.68 2387.49L1202.61 2417.91L1122.68 2448.34L1202.61 2478.77L1122.68 2509.19L1202.61 2539.62L1120.49 2570.89Z" fill="#E8F1F7"/>
<path d="M1200.41 2601.31L1199.78 2599.64L1277.51 2570.05L1197.58 2539.62L1277.51 2509.19L1197.58 2478.76L1277.51 2448.34L1197.58 2417.91L1277.51 2387.49L1197.58 2357.06L1277.51 2326.65L1197.58 2296.22L1277.51 2265.8L1197.58 2235.38L1277.51 2204.96L1197.58 2174.53L1279.71 2143.28L1280.35 2144.95L1202.61 2174.53L1282.54 2204.96L1202.61 2235.38L1282.54 2265.8L1202.61 2296.22L1282.54 2326.65L1202.61 2357.06L1282.54 2387.49L1202.61 2417.91L1282.54 2448.34L1202.61 2478.76L1282.54 2509.19L1202.61 2539.62L1282.54 2570.05L1200.41 2601.31Z" fill="#E8F1F7"/>
<path d="M1280.34 2570.89L1279.71 2569.22L1357.44 2539.62L1277.51 2509.19L1357.44 2478.77L1277.51 2448.34L1357.44 2417.91L1277.51 2387.49L1357.44 2357.06L1277.51 2326.64L1357.44 2296.22L1277.51 2265.8L1357.44 2235.38L1277.51 2204.95L1357.44 2174.53L1277.51 2144.11L1359.64 2112.85L1360.28 2114.53L1282.54 2144.11L1362.47 2174.53L1282.54 2204.95L1362.47 2235.38L1282.54 2265.8L1362.47 2296.22L1282.54 2326.64L1362.47 2357.06L1282.54 2387.49L1362.47 2417.91L1282.54 2448.34L1362.47 2478.77L1282.54 2509.19L1362.47 2539.62L1280.34 2570.89Z" fill="#E8F1F7"/>
<path d="M1360.28 2601.31L1359.64 2599.64L1437.37 2570.05L1357.44 2539.62L1437.37 2509.19L1357.44 2478.76L1437.37 2448.34L1357.44 2417.91L1437.37 2387.49L1357.44 2357.06L1437.37 2326.65L1357.44 2296.22L1437.37 2265.8L1357.44 2235.38L1437.37 2204.96L1357.44 2174.53L1439.57 2143.28L1440.21 2144.95L1362.47 2174.53L1442.4 2204.96L1362.47 2235.38L1442.4 2265.8L1362.47 2296.22L1442.4 2326.65L1362.47 2357.06L1442.4 2387.49L1362.47 2417.91L1442.4 2448.34L1362.47 2478.76L1442.4 2509.19L1362.47 2539.62L1442.4 2570.05L1360.28 2601.31Z" fill="#E8F1F7"/>
<path d="M1440.2 2570.89L1439.57 2569.22L1517.3 2539.62L1437.37 2509.19L1517.3 2478.77L1437.37 2448.34L1517.3 2417.91L1437.37 2387.49L1517.3 2357.06L1437.37 2326.64L1517.3 2296.22L1437.37 2265.8L1517.3 2235.38L1437.37 2204.95L1517.3 2174.53L1437.37 2144.11L1519.5 2112.85L1520.14 2114.53L1442.4 2144.11L1522.33 2174.53L1442.4 2204.95L1522.33 2235.38L1442.4 2265.8L1522.33 2296.22L1442.4 2326.64L1522.33 2357.06L1442.4 2387.49L1522.33 2417.91L1442.4 2448.34L1522.33 2478.77L1442.4 2509.19L1522.33 2539.62L1440.2 2570.89Z" fill="#E8F1F7"/>
<path d="M720.834 2175.39L720.196 2173.71L797.933 2144.12L718 2113.69L797.931 2083.26L718 2052.83L797.931 2022.41L718 1991.98L797.931 1961.56L718 1931.14L797.931 1900.72L718 1870.3L797.931 1839.87L718 1809.45L797.931 1779.03L718 1748.61L800.126 1717.35L800.765 1719.02L723.03 1748.61L802.961 1779.03L723.03 1809.45L802.961 1839.87L723.03 1870.3L802.961 1900.72L723.03 1931.14L802.961 1961.56L723.03 1991.98L802.961 2022.41L723.03 2052.83L802.961 2083.26L723.03 2113.69L802.961 2144.12L720.834 2175.39Z" fill="#E8F1F7"/>
<path d="M800.766 2144.96L800.127 2143.29L877.862 2113.7L797.932 2083.27L877.862 2052.84L797.932 2022.41L877.862 1991.98L797.932 1961.56L877.862 1931.14L797.932 1900.72L877.862 1870.3L797.932 1839.87L877.862 1809.45L797.932 1779.03L877.862 1748.61L797.932 1718.19L880.058 1686.93L880.694 1688.6L802.962 1718.19L882.892 1748.61L802.962 1779.03L882.892 1809.45L802.962 1839.87L882.892 1870.3L802.962 1900.72L882.892 1931.14L802.962 1961.56L882.892 1991.98L802.962 2022.41L882.892 2052.84L802.962 2083.27L882.89 2113.7L800.766 2144.96Z" fill="#E8F1F7"/>
<path d="M880.693 2175.39L880.057 2173.71L957.792 2144.12L877.861 2113.69L957.79 2083.26L877.861 2052.83L957.79 2022.41L877.861 1991.98L957.79 1961.56L877.861 1931.14L957.79 1900.72L877.861 1870.3L957.79 1839.87L877.861 1809.45L957.79 1779.03L877.861 1748.61L959.985 1717.35L960.624 1719.02L882.891 1748.61L962.82 1779.03L882.891 1809.45L962.82 1839.87L882.891 1870.3L962.82 1900.72L882.891 1931.14L962.82 1961.56L882.891 1991.98L962.82 2022.41L882.891 2052.83L962.82 2083.26L882.891 2113.69L962.82 2144.12L880.693 2175.39Z" fill="#E8F1F7"/>
<path d="M960.624 2144.96L959.986 2143.29L1037.72 2113.7L957.79 2083.27L1037.72 2052.84L957.79 2022.41L1037.72 1991.98L957.79 1961.56L1037.72 1931.14L957.79 1900.72L1037.72 1870.3L957.79 1839.87L1037.72 1809.45L957.79 1779.03L1037.72 1748.61L957.79 1718.19L1039.92 1686.93L1040.56 1688.6L962.82 1718.19L1042.75 1748.61L962.82 1779.03L1042.75 1809.45L962.82 1839.87L1042.75 1870.3L962.82 1900.72L1042.75 1931.14L962.82 1961.56L1042.75 1991.98L962.82 2022.41L1042.75 2052.84L962.82 2083.27L1042.75 2113.7L960.624 2144.96Z" fill="#E8F1F7"/>
<path d="M1040.55 2175.39L1039.92 2173.71L1117.65 2144.12L1037.72 2113.69L1117.65 2083.26L1037.72 2052.83L1117.65 2022.41L1037.72 1991.98L1117.65 1961.56L1037.72 1931.14L1117.65 1900.72L1037.72 1870.3L1117.65 1839.87L1037.72 1809.45L1117.65 1779.03L1037.72 1748.61L1119.85 1717.35L1120.49 1719.02L1042.75 1748.61L1122.68 1779.03L1042.75 1809.45L1122.68 1839.87L1042.75 1870.3L1122.68 1900.72L1042.75 1931.14L1122.68 1961.56L1042.75 1991.98L1122.68 2022.41L1042.75 2052.83L1122.68 2083.26L1042.75 2113.69L1122.68 2144.12L1040.55 2175.39Z" fill="#E8F1F7"/>
<path d="M1120.49 2144.96L1119.85 2143.29L1197.58 2113.7L1117.65 2083.27L1197.58 2052.84L1117.65 2022.41L1197.58 1991.98L1117.65 1961.56L1197.58 1931.14L1117.65 1900.72L1197.58 1870.3L1117.65 1839.87L1197.58 1809.45L1117.65 1779.03L1197.58 1748.61L1117.65 1718.19L1199.78 1686.93L1200.41 1688.6L1122.68 1718.19L1202.61 1748.61L1122.68 1779.03L1202.61 1809.45L1122.68 1839.87L1202.61 1870.3L1122.68 1900.72L1202.61 1931.14L1122.68 1961.56L1202.61 1991.98L1122.68 2022.41L1202.61 2052.84L1122.68 2083.27L1202.61 2113.7L1120.49 2144.96Z" fill="#E8F1F7"/>
<path d="M1200.41 2175.39L1199.78 2173.71L1277.51 2144.12L1197.58 2113.69L1277.51 2083.26L1197.58 2052.83L1277.51 2022.41L1197.58 1991.98L1277.51 1961.56L1197.58 1931.14L1277.51 1900.72L1197.58 1870.3L1277.51 1839.87L1197.58 1809.45L1277.51 1779.03L1197.58 1748.61L1279.71 1717.35L1280.35 1719.02L1202.61 1748.61L1282.54 1779.03L1202.61 1809.45L1282.54 1839.87L1202.61 1870.3L1282.54 1900.72L1202.61 1931.14L1282.54 1961.56L1202.61 1991.98L1282.54 2022.41L1202.61 2052.83L1282.54 2083.26L1202.61 2113.69L1282.54 2144.12L1200.41 2175.39Z" fill="#E8F1F7"/>
<path d="M1280.34 2144.96L1279.71 2143.29L1357.44 2113.7L1277.51 2083.27L1357.44 2052.84L1277.51 2022.41L1357.44 1991.98L1277.51 1961.56L1357.44 1931.14L1277.51 1900.72L1357.44 1870.3L1277.51 1839.87L1357.44 1809.45L1277.51 1779.03L1357.44 1748.61L1277.51 1718.19L1359.64 1686.93L1360.28 1688.6L1282.54 1718.19L1362.47 1748.61L1282.54 1779.03L1362.47 1809.45L1282.54 1839.87L1362.47 1870.3L1282.54 1900.72L1362.47 1931.14L1282.54 1961.56L1362.47 1991.98L1282.54 2022.41L1362.47 2052.84L1282.54 2083.27L1362.47 2113.7L1280.34 2144.96Z" fill="#E8F1F7"/>
<path d="M1360.28 2175.39L1359.64 2173.71L1437.37 2144.12L1357.44 2113.69L1437.37 2083.26L1357.44 2052.83L1437.37 2022.41L1357.44 1991.98L1437.37 1961.56L1357.44 1931.14L1437.37 1900.72L1357.44 1870.3L1437.37 1839.87L1357.44 1809.45L1437.37 1779.03L1357.44 1748.61L1439.57 1717.35L1440.21 1719.02L1362.47 1748.61L1442.4 1779.03L1362.47 1809.45L1442.4 1839.87L1362.47 1870.3L1442.4 1900.72L1362.47 1931.14L1442.4 1961.56L1362.47 1991.98L1442.4 2022.41L1362.47 2052.83L1442.4 2083.26L1362.47 2113.69L1442.4 2144.12L1360.28 2175.39Z" fill="#E8F1F7"/>
<path d="M1440.2 2144.96L1439.57 2143.29L1517.3 2113.7L1437.37 2083.27L1517.3 2052.84L1437.37 2022.41L1517.3 1991.98L1437.37 1961.56L1517.3 1931.14L1437.37 1900.72L1517.3 1870.3L1437.37 1839.87L1517.3 1809.45L1437.37 1779.03L1517.3 1748.61L1437.37 1718.19L1519.5 1686.93L1520.14 1688.6L1442.4 1718.19L1522.33 1748.61L1442.4 1779.03L1522.33 1809.45L1442.4 1839.87L1522.33 1870.3L1442.4 1900.72L1522.33 1931.14L1442.4 1961.56L1522.33 1991.98L1442.4 2022.41L1522.33 2052.84L1442.4 2083.27L1522.33 2113.7L1440.2 2144.96Z" fill="#E8F1F7"/>
<path d="M720.834 3027.24L720.196 3025.57L797.933 2995.97L718 2965.54L797.931 2935.12L718 2904.69L797.931 2874.26L718 2843.84L797.931 2813.42L718 2782.99L797.931 2752.58L718 2722.15L797.931 2691.73L718 2661.31L797.931 2630.88L718 2600.46L800.126 2569.2L800.765 2570.88L723.03 2600.46L802.961 2630.88L723.03 2661.31L802.961 2691.73L723.03 2722.15L802.961 2752.58L723.03 2782.99L802.961 2813.42L723.03 2843.84L802.961 2874.26L723.03 2904.69L802.961 2935.12L723.03 2965.54L802.961 2995.97L720.834 3027.24Z" fill="#E8F1F7"/>
<path d="M800.766 2996.82L800.127 2995.14L877.862 2965.55L797.932 2935.12L877.862 2904.69L797.932 2874.27L877.862 2843.84L797.932 2813.42L877.862 2782.99L797.932 2752.57L877.862 2722.15L797.932 2691.73L877.862 2661.31L797.932 2630.88L877.862 2600.46L797.932 2570.04L880.058 2538.78L880.694 2540.45L802.962 2570.04L882.892 2600.46L802.962 2630.88L882.892 2661.31L802.962 2691.73L882.892 2722.15L802.962 2752.57L882.892 2782.99L802.962 2813.42L882.892 2843.84L802.962 2874.27L882.892 2904.69L802.962 2935.12L882.89 2965.55L800.766 2996.82Z" fill="#E8F1F7"/>
<path d="M880.693 3027.24L880.057 3025.57L957.792 2995.97L877.861 2965.54L957.79 2935.12L877.861 2904.69L957.79 2874.26L877.861 2843.84L957.79 2813.42L877.861 2782.99L957.79 2752.58L877.861 2722.15L957.79 2691.73L877.861 2661.31L957.79 2630.88L877.861 2600.46L959.985 2569.2L960.624 2570.88L882.891 2600.46L962.82 2630.88L882.891 2661.31L962.82 2691.73L882.891 2722.15L962.82 2752.58L882.891 2782.99L962.82 2813.42L882.891 2843.84L962.82 2874.26L882.891 2904.69L962.82 2935.12L882.891 2965.54L962.82 2995.97L880.693 3027.24Z" fill="#E8F1F7"/>
<path d="M960.624 2996.82L959.986 2995.14L1037.72 2965.55L957.79 2935.12L1037.72 2904.69L957.79 2874.27L1037.72 2843.84L957.79 2813.42L1037.72 2782.99L957.79 2752.57L1037.72 2722.15L957.79 2691.73L1037.72 2661.31L957.79 2630.88L1037.72 2600.46L957.79 2570.04L1039.92 2538.78L1040.56 2540.45L962.82 2570.04L1042.75 2600.46L962.82 2630.88L1042.75 2661.31L962.82 2691.73L1042.75 2722.15L962.82 2752.57L1042.75 2782.99L962.82 2813.42L1042.75 2843.84L962.82 2874.27L1042.75 2904.69L962.82 2935.12L1042.75 2965.55L960.624 2996.82Z" fill="#E8F1F7"/>
<path d="M1040.55 3027.24L1039.92 3025.57L1117.65 2995.97L1037.72 2965.54L1117.65 2935.12L1037.72 2904.69L1117.65 2874.26L1037.72 2843.84L1117.65 2813.42L1037.72 2782.99L1117.65 2752.58L1037.72 2722.15L1117.65 2691.73L1037.72 2661.31L1117.65 2630.88L1037.72 2600.46L1119.85 2569.2L1120.49 2570.88L1042.75 2600.46L1122.68 2630.88L1042.75 2661.31L1122.68 2691.73L1042.75 2722.15L1122.68 2752.58L1042.75 2782.99L1122.68 2813.42L1042.75 2843.84L1122.68 2874.26L1042.75 2904.69L1122.68 2935.12L1042.75 2965.54L1122.68 2995.97L1040.55 3027.24Z" fill="#E8F1F7"/>
<path d="M1120.49 2996.82L1119.85 2995.14L1197.58 2965.55L1117.65 2935.12L1197.58 2904.69L1117.65 2874.27L1197.58 2843.84L1117.65 2813.42L1197.58 2782.99L1117.65 2752.57L1197.58 2722.15L1117.65 2691.73L1197.58 2661.31L1117.65 2630.88L1197.58 2600.46L1117.65 2570.04L1199.78 2538.78L1200.41 2540.45L1122.68 2570.04L1202.61 2600.46L1122.68 2630.88L1202.61 2661.31L1122.68 2691.73L1202.61 2722.15L1122.68 2752.57L1202.61 2782.99L1122.68 2813.42L1202.61 2843.84L1122.68 2874.27L1202.61 2904.69L1122.68 2935.12L1202.61 2965.55L1120.49 2996.82Z" fill="#E8F1F7"/>
<path d="M1200.41 3027.24L1199.78 3025.57L1277.51 2995.97L1197.58 2965.54L1277.51 2935.12L1197.58 2904.69L1277.51 2874.26L1197.58 2843.84L1277.51 2813.42L1197.58 2782.99L1277.51 2752.58L1197.58 2722.15L1277.51 2691.73L1197.58 2661.31L1277.51 2630.88L1197.58 2600.46L1279.71 2569.2L1280.35 2570.88L1202.61 2600.46L1282.54 2630.88L1202.61 2661.31L1282.54 2691.73L1202.61 2722.15L1282.54 2752.58L1202.61 2782.99L1282.54 2813.42L1202.61 2843.84L1282.54 2874.26L1202.61 2904.69L1282.54 2935.12L1202.61 2965.54L1282.54 2995.97L1200.41 3027.24Z" fill="#E8F1F7"/>
<path d="M1280.34 2996.82L1279.71 2995.14L1357.44 2965.55L1277.51 2935.12L1357.44 2904.69L1277.51 2874.27L1357.44 2843.84L1277.51 2813.42L1357.44 2782.99L1277.51 2752.57L1357.44 2722.15L1277.51 2691.73L1357.44 2661.31L1277.51 2630.88L1357.44 2600.46L1277.51 2570.04L1359.64 2538.78L1360.28 2540.45L1282.54 2570.04L1362.47 2600.46L1282.54 2630.88L1362.47 2661.31L1282.54 2691.73L1362.47 2722.15L1282.54 2752.57L1362.47 2782.99L1282.54 2813.42L1362.47 2843.84L1282.54 2874.27L1362.47 2904.69L1282.54 2935.12L1362.47 2965.55L1280.34 2996.82Z" fill="#E8F1F7"/>
<path d="M1360.28 3027.24L1359.64 3025.57L1437.37 2995.97L1357.44 2965.54L1437.37 2935.12L1357.44 2904.69L1437.37 2874.26L1357.44 2843.84L1437.37 2813.42L1357.44 2782.99L1437.37 2752.58L1357.44 2722.15L1437.37 2691.73L1357.44 2661.31L1437.37 2630.88L1357.44 2600.46L1439.57 2569.2L1440.21 2570.88L1362.47 2600.46L1442.4 2630.88L1362.47 2661.31L1442.4 2691.73L1362.47 2722.15L1442.4 2752.58L1362.47 2782.99L1442.4 2813.42L1362.47 2843.84L1442.4 2874.26L1362.47 2904.69L1442.4 2935.12L1362.47 2965.54L1442.4 2995.97L1360.28 3027.24Z" fill="#E8F1F7"/>
<path d="M1440.2 2996.82L1439.57 2995.14L1517.3 2965.55L1437.37 2935.12L1517.3 2904.69L1437.37 2874.27L1517.3 2843.84L1437.37 2813.42L1517.3 2782.99L1437.37 2752.57L1517.3 2722.15L1437.37 2691.73L1517.3 2661.31L1437.37 2630.88L1517.3 2600.46L1437.37 2570.04L1519.5 2538.78L1520.14 2540.45L1442.4 2570.04L1522.33 2600.46L1442.4 2630.88L1522.33 2661.31L1442.4 2691.73L1522.33 2722.15L1442.4 2752.57L1522.33 2782.99L1442.4 2813.42L1522.33 2843.84L1442.4 2874.27L1522.33 2904.69L1442.4 2935.12L1522.33 2965.55L1440.2 2996.82Z" fill="#E8F1F7"/>
</svg>
